<svg id="bartjs-logo" width="80px" height="75px" viewBox="0 0 630 630" version="1.1" xmlns="http://www.w3.org/2000/svg" xmlns:xlink="http://www.w3.org/1999/xlink"><path d="M0,0 L630,0 L630,630 L0,630 L0,0 Z M423.2,492.19 L375.09,520.14 C392.47,554.48 427.99,580.68 482.97,580.68 C539.2,580.68 581.07,551.48 581.07,498.18 C581.07,448.74 552.67,426.75 502.37,405.18 L487.57,398.84 C462.17,387.84 451.17,380.65 451.17,362.89 C451.17,348.52 462.16,337.52 479.5,337.52 C496.5,337.52 507.45,344.69 517.6,362.89 L563.7,333.29 C544.2,298.99 517.14,285.89 479.5,285.89 C426.63,285.89 392.8,319.69 392.8,364.09 C392.8,412.29 421.18,435.09 463.9,453.29 L478.7,459.64 C505.7,471.45 521.8,478.64 521.8,498.94 C521.8,515.88 506.13,528.14 481.6,528.14 C452.4,528.14 435.89,512.91 423.2,492.19 Z M214.07,497.32 L165.88,526.495 C179.84,556.04 207.29,580.57 254.69,580.57 C307.15,580.57 343.09,552.67 343.09,491.37 L343.09,289.27 L283.89,289.27 L283.89,490.57 C283.89,520.16 271.62,527.77 252.17,527.77 C231.83,527.77 223.37,513.82 214.07,497.32 Z M321.613876,134.570814 L314.627033,142.192824 L307.767225,135.333015 C298.747847,126.05957 286.806699,118.43756 275.754785,115.007656 C263.178469,111.069618 243.869378,111.069618 230.657895,115.261723 C217.954545,119.072728 201.440191,127.965072 190.769378,136.476316 C161.932775,159.596412 133.858373,172.172728 114.295215,170.902393 C108.832775,170.521292 103.243301,169.250957 100.194498,167.599522 C94.3509569,164.677752 86.3478469,157.055742 85.2045455,153.371771 C83.9342105,149.306699 85.5856459,142.700957 88.5074163,140.033254 C92.0643541,136.857417 101.337799,137.111484 109.340909,140.668422 C116.708852,143.971292 119.122488,143.971292 121.790191,141.049522 C125.601196,136.857417 124.457895,133.173446 117.216986,126.05957 C97.7808612,107.385646 74.0255981,111.577752 54.8435407,137.111484 C49.1270335,144.733493 49,144.98756 49,154.769139 C49,166.710288 52.3028708,178.270335 58.1464115,187.16268 C73.1363636,209.774642 103.497368,226.543063 139.066746,231.878469 C159.519139,234.927273 206.140431,234.927273 222.654785,231.878469 C247.553349,227.17823 268.640909,219.302154 284.647129,208.758374 C292.269139,203.677034 307.132057,189.195216 310.434928,183.732776 C311.57823,181.827273 313.229665,180.175838 314.1189,180.175838 C314.8811,180.175838 318.183971,183.605742 321.359809,187.670814 C346.13134,219.810288 394.785167,236.578709 456.142344,234.419139 C506.701675,232.513637 535.538278,222.859091 559.420574,199.993063 C572.886124,187.035646 580,171.53756 580,154.642106 C580,147.655264 579.364833,145.495694 576.316029,140.668422 C571.234689,132.665312 558.277273,120.851197 551.163397,117.548326 C537.951914,111.577752 522.453828,115.007656 510.258612,126.567704 C505.939474,130.632776 505.050239,132.411245 505.050239,136.222249 C505.050239,143.336125 508.988278,144.60646 519.023923,140.795455 C528.551435,137.238517 537.189713,136.730383 539.98445,139.652154 C543.160287,142.700957 544.303589,149.941867 542.52512,154.261005 C539.98445,160.358613 531.346172,167.091388 523.216029,169.505024 C510.512679,173.188996 493.236124,169.886125 473.8,160.104546 C465.415789,155.912441 443.693062,141.430623 433.276316,133.046412 C425.146172,126.567704 403.677512,116.023924 393.895933,113.610288 C383.479187,111.196651 371.156938,110.307417 362.772727,111.577752 C347.401675,113.991388 333.555024,121.740431 321.613876,134.570814 Z"></path></svg>