<svg xmlns="http://www.w3.org/2000/svg" viewBox="0 0 285.83 49.92"><title>acando</title><path d="M285.08,18.87A24.9,24.9,0,0,0,254.92.79c-7.64,1.91-19.06,9-25.19,13l-1.16.77A24.9,24.9,0,0,0,206,.18H188.22a2.63,2.63,0,0,0-2.63,2.63V42.94c0,.8-.29,1.41-.75,1.55s-1.15-.27-1.67-1.07c-2.63-4-9.48-15.17-15.53-25C163.71,12.05,160,6,158.14,3.09a6.18,6.18,0,0,0-7-2.85,6.27,6.27,0,0,0-4.45,6.15V40.6c0,1.91-.63,3.39-1.59,3.77s-2.25-.22-3.48-1.53c-4.05-4.3-7.38-12.81-10.59-21C126.48,10.2,122.57.18,115.89.18c-5.95,0-9.43,7.94-13.84,18-4,9.07-8.48,19.35-14.83,23.45-9,5.83-19.59,1.93-24.22-2.7A19.6,19.6,0,0,1,86.63,8.08a2.63,2.63,0,1,0,2.63-4.56A24.81,24.81,0,0,0,60.18,6.62C56.31,9.69,48.43,15.9,39.86,22.4c-.7-1.74-1.44-3.46-2.19-5.14C32.36,5.45,28,.18,23.49.18c-2.34,0-6.25,1.51-13.23,14.53A123.06,123.06,0,0,0,.65,38C-1,43.91.73,46.72,2.43,48a6.75,6.75,0,0,0,4.21,1.31,14.59,14.59,0,0,0,7.08-2.19c5.95-3.42,14.91-9.78,23.73-16.36,2.54,6.92,4.49,13.27,5.43,16.43a2.63,2.63,0,1,0,5.05-1.5c-1-3.44-3.22-10.59-6.08-18.23,3.84-2.9,7.54-5.75,10.85-8.32a24.88,24.88,0,0,0,6.57,23.46c6.87,6.87,20,10.39,30.81,3.4,7.68-5,12.52-16,16.79-25.76,2.75-6.26,6.51-14.84,9-14.84,3.08,0,7.37,11,10.22,18.27,3.4,8.7,6.91,17.7,11.66,22.74,2.79,3,6.25,4,9.26,2.81S152,44.81,152,40.6V6.39c0-.81.45-1,.64-1.09.4-.11.78.1,1.1.59,1.83,2.91,5.54,8.93,9.47,15.3,6.06,9.83,12.93,21,15.59,25.08,1.82,2.8,4.8,4.08,7.59,3.25a6.57,6.57,0,0,0,4.52-6.6V5.45H206a19.63,19.63,0,0,1,18.12,12.13A175.1,175.1,0,0,0,206,31.92c-7.43,7-7.77,11.54-6.74,14.13s3.44,3.87,6.75,3.87a25.07,25.07,0,0,0,17.07-7.25A24.41,24.41,0,0,0,230.9,25a24.86,24.86,0,0,0-.57-5.3C240,13.2,250.15,7.41,256.2,5.9a19.6,19.6,0,1,1-14.25,23.77,2.63,2.63,0,0,0-5.11,1.28,24.87,24.87,0,0,0,48.25-12.07ZM11.09,42.6c-2.77,1.59-4.88,1.7-5.44,1.27-.33-.25-.73-1.52.09-4.52a117.51,117.51,0,0,1,8.83-21.52c3.81-7.21,6.52-10.47,8-11.72a1.75,1.75,0,0,1,2.15,0c1.44,1.17,4.17,4.39,8.17,13.31.91,2,1.8,4.15,2.64,6.26C26.41,32.48,17.06,39.16,11.09,42.6Zm194.94,2c-1.08,0-1.75-.27-1.85-.54-.26-.65.21-3.43,5.45-8.35a162.93,162.93,0,0,1,15.91-12.68q.1,1,.1,2C225.63,36.27,215.28,44.65,206,44.65Z" style="fill:#262626"/></svg>