<svg enable-background="new 0 0 360 360" viewBox="0 0 360 360" xmlns="http://www.w3.org/2000/svg"><g fill="#fff"><path d="m235.4 196.7v-.6h3v.6h-1.1v2.9h-.7v-2.9zm4.6-.6.9 2.5.9-2.5h1v3.5h-.6v-2.8l-1 2.8h-.6l-1-2.8v2.8h-.6v-3.5z"/><path d="m120.1 237.2h2.1l3.6 9.5 3.6-9.5h2.1v11.4h-1.5v-9.5l-3.5 9.5h-1.3l-3.5-9.5v9.5h-1.4v-11.4z"/><path d="m140.8 248.5c-.2.1-.5.2-1 .2-.7 0-1.1-.4-1.1-1.3-.7.9-1.8 1.3-2.9 1.3-1.5 0-2.7-.7-2.7-2.3 0-1.9 1.4-2.3 2.8-2.5 1.5-.3 2.8-.2 2.8-1.2 0-1.2-1-1.4-1.8-1.4-1.1 0-2 .3-2.1 1.6h-1.4c.1-2 1.7-2.8 3.5-2.8 1.5 0 3.1.3 3.1 2.3v4.2c0 .6 0 .9.4.9.1 0 .2 0 .4-.1zm-2.2-4.2c-.5.4-1.5.4-2.5.6-.9.2-1.7.5-1.7 1.5 0 .9.8 1.2 1.6 1.2 1.8 0 2.5-1.1 2.5-1.9v-1.4z"/><path d="m142 240.3h1.3v1.3c.6-1 1.5-1.5 2.7-1.5 2.2 0 2.8 1.2 2.8 3v5.4h-1.4v-5.5c0-1-.6-1.7-1.7-1.7-1.6 0-2.4 1.1-2.4 2.6v4.6h-1.3z"/><path d="m150.6 240.3h1.4v1.1c.4-.9 1.5-1.3 2.6-1.3 2.5 0 3.8 2 3.8 4.3s-1.2 4.3-3.8 4.3c-.8 0-2.1-.3-2.7-1.3v4.2h-1.4v-11.3zm3.8 1c-1.8 0-2.5 1.6-2.5 3.1 0 1.6.7 3.1 2.6 3.1 1.8 0 2.5-1.6 2.5-3.2 0-1.5-.8-3-2.6-3z"/><path d="m163.5 240.1c2.6 0 4 1.9 4 4.3s-1.4 4.3-4 4.3-4-1.9-4-4.3 1.4-4.3 4-4.3zm0 7.5c1.4 0 2.6-1.1 2.6-3.1s-1.1-3.1-2.6-3.1-2.6 1.1-2.6 3.1c0 1.9 1.2 3.1 2.6 3.1z"/><path d="m176.8 248.6h-1.4l-1.7-6.5-1.7 6.5h-1.5l-2.6-8.2h1.5l1.9 6.7 1.7-6.7h1.5l1.7 6.7 1.8-6.7h1.4z"/><path d="m187.3 245.9c-.4 1.8-1.7 2.8-3.5 2.8-2.6 0-3.9-1.8-3.9-4.3s1.6-4.3 3.9-4.3c2.9 0 3.8 2.7 3.7 4.7h-6.2c0 1.4.8 2.7 2.6 2.7 1.1 0 1.9-.5 2.1-1.6zm-1.3-2.2c-.1-1.3-1-2.3-2.4-2.3s-2.3 1.1-2.4 2.3z"/><path d="m188.7 240.3h1.3v1.7c.7-1.3 1.6-2 3-1.9v1.4c-2.2 0-3 1.2-3 3.3v3.7h-1.4v-8.2z"/><path d="m202.8 247.1c-.9 1.2-2.3 1.7-3.6 1.7-3.4 0-5.4-2.8-5.4-5.7 0-3.3 1.8-6.2 5.4-6.2 2.5 0 4.5 1.1 4.9 3.8h-1.5c-.3-1.7-1.7-2.5-3.4-2.5-2.8 0-3.9 2.4-3.9 4.8s1.4 4.5 3.9 4.5c2.3 0 3.7-1.6 3.6-3.7h-3.6v-1.3h5v6h-1z"/><path d="m206 240.3h1.3v1.7c.7-1.3 1.6-2 3-1.9v1.4c-2.2 0-3 1.2-3 3.3v3.7h-1.3z"/><path d="m214.5 240.1c2.6 0 4 1.9 4 4.3s-1.4 4.3-4 4.3-4-1.9-4-4.3 1.4-4.3 4-4.3zm0 7.5c1.4 0 2.6-1.1 2.6-3.1s-1.1-3.1-2.6-3.1c-1.4 0-2.6 1.1-2.6 3.1.1 1.9 1.2 3.1 2.6 3.1z"/><path d="m226.7 248.6h-1.3v-1.3c-.6 1-1.5 1.5-2.7 1.5-2.2 0-2.8-1.2-2.8-3v-5.4h1.4v5.6c0 1 .6 1.7 1.7 1.7 1.6 0 2.4-1.1 2.4-2.6v-4.6h1.4v8.1z"/><path d="m228.5 240.3h1.4v1.1c.4-.9 1.5-1.3 2.6-1.3 2.5 0 3.8 2 3.8 4.3s-1.2 4.3-3.8 4.3c-.8 0-2.1-.3-2.7-1.3v4.2h-1.4v-11.3zm3.8 1c-1.8 0-2.5 1.6-2.5 3.1 0 1.6.7 3.1 2.6 3.1 1.8 0 2.5-1.6 2.5-3.2 0-1.5-.8-3-2.6-3z"/><path d="m214 95.7c-1.7-1.7-3.9-2.6-6.3-2.6s-4.6.9-6.3 2.6l-13.4 13.5c-1.7 1.7-2.6 3.9-2.6 6.3s.9 4.6 2.6 6.3 3.9 2.6 6.3 2.6 4.6-.9 6.3-2.6l13.5-13.4c3.4-3.6 3.4-9.2-.1-12.7z"/><path d="m214 154.7-13.5-13.4c-1.7-1.7-3.9-2.6-6.3-2.6s-4.6.9-6.3 2.6-2.6 3.9-2.6 6.3.9 4.6 2.6 6.3l13.5 13.4c1.7 1.7 3.9 2.6 6.3 2.6 2.4 0 4.6-.9 6.3-2.6 3.5-3.4 3.5-9.1 0-12.6z"/><path d="m187.1 131.5c0-2.4-.9-4.6-2.6-6.3l-29.5-29.5c-1.7-1.7-3.9-2.6-6.3-2.6s-4.6.9-6.3 2.6c-3.5 3.5-3.5 9.1 0 12.6l23.2 23.2-23.2 23.2c-3.5 3.5-3.5 9.1 0 12.6 1.7 1.7 3.9 2.6 6.3 2.6s4.6-.9 6.3-2.6l29.5-29.5c1.6-1.7 2.6-3.9 2.6-6.3z"/><path d="m138.2 196.1v2.9h-14.6v8.3h13.6v2.9h-13.6v9.1h14.7v2.9h-18.2v-26.2h18.1z"/><path d="m140.7 203.4h4l4.6 6.6 4.7-6.6h3.7l-6.5 8.7 7.3 10.2h-4l-5.3-7.9-5.3 7.9h-3.8l7.1-10z"/><path d="m163.5 203.4v2.6h.1c.5-1.1 1.3-1.8 2.4-2.3s2.3-.7 3.6-.7c1.5 0 2.7.3 3.8.8s2 1.3 2.7 2.2 1.3 2 1.6 3.2c.4 1.2.6 2.5.6 3.8s-.2 2.6-.5 3.8c-.4 1.2-.9 2.2-1.6 3.1s-1.6 1.6-2.7 2.1-2.4.8-3.8.8c-.5 0-1 0-1.6-.1s-1.1-.3-1.7-.5-1.1-.5-1.6-.9-.9-.8-1.3-1.4h-.1v9.8h-3.1v-26.2h3.2zm11.3 6.7c-.2-.8-.6-1.6-1.1-2.3s-1.1-1.2-1.8-1.6-1.6-.6-2.6-.6c-1.1 0-1.9.2-2.7.6-.7.4-1.3 1-1.8 1.6-.5.7-.8 1.4-1 2.3s-.3 1.7-.3 2.6.1 1.8.3 2.7.6 1.6 1 2.3c.5.7 1.1 1.2 1.9 1.6s1.7.6 2.8.6 2-.2 2.7-.6 1.3-1 1.7-1.7.8-1.5 1-2.3c.2-.9.3-1.8.3-2.7-.1-.8-.2-1.6-.4-2.5z"/><path d="m195.2 221.1c-1.4 1.1-3.2 1.6-5.4 1.6-1.5 0-2.8-.2-3.9-.7s-2-1.2-2.8-2.1-1.3-1.9-1.7-3.2c-.4-1.2-.6-2.6-.6-4s.2-2.8.7-4c.4-1.2 1.1-2.2 1.9-3.1s1.7-1.6 2.8-2.1 2.3-.7 3.6-.7c1.7 0 3.1.3 4.2 1s2 1.6 2.7 2.7 1.1 2.3 1.4 3.5c.3 1.3.4 2.5.3 3.6h-14.2c0 .8.1 1.6.3 2.4.2.7.6 1.4 1.1 2s1.1 1 1.9 1.4c.8.3 1.7.5 2.7.5 1.3 0 2.4-.3 3.2-.9s1.4-1.5 1.7-2.8h3.1c-.6 2.3-1.5 3.9-3 4.9zm-.7-12.1c-.3-.7-.7-1.2-1.1-1.7-.5-.5-1-.9-1.7-1.1-.6-.3-1.4-.4-2.1-.4-.8 0-1.5.1-2.2.4-.6.3-1.2.7-1.7 1.2s-.8 1.1-1.1 1.7-.4 1.3-.5 2.1h10.9c-.1-.9-.2-1.6-.5-2.2z"/><path d="m204.3 203.4v4h.1c.8-1.5 1.7-2.7 2.8-3.4s2.5-1.1 4.2-1v3.3c-1.2 0-2.3.2-3.2.5s-1.6.8-2.1 1.5-.9 1.5-1.2 2.4c-.2.9-.4 2-.4 3.2v8.4h-3.1v-19h2.9z"/><path d="m213.9 200v-3.8h3.1v3.8zm3.1 3.4v19h-3.1v-19z"/><path d="m223.8 218.1c.3.5.7.9 1.2 1.1.5.3 1 .5 1.6.6s1.2.2 1.9.2c.5 0 1 0 1.5-.1s1-.2 1.5-.4.8-.5 1.1-.9.4-.9.4-1.5c0-.8-.3-1.4-.9-1.8s-1.4-.8-2.3-1c-.9-.3-1.9-.5-3-.7s-2.1-.5-3-.9-1.7-.9-2.3-1.6-.9-1.6-.9-2.9c0-1 .2-1.8.6-2.5s1-1.2 1.7-1.7c.7-.4 1.4-.7 2.3-1 .8-.2 1.7-.3 2.5-.3 1.1 0 2.1.1 3 .3s1.7.5 2.4 1 1.3 1.1 1.7 1.8c.4.8.7 1.7.7 2.9h-3.1c0-.6-.2-1.1-.5-1.5s-.6-.7-1-1c-.4-.2-.9-.4-1.4-.5s-1-.2-1.5-.2-.9 0-1.4.1-.9.2-1.3.4-.7.4-1 .7c-.2.3-.4.7-.4 1.2s.2 1 .6 1.3c.4.4.9.6 1.4.9.6.2 1.2.4 2 .6.7.2 1.5.3 2.2.5.8.2 1.5.4 2.3.6.7.2 1.4.6 2 1s1 .9 1.4 1.5.5 1.4.5 2.3c0 1.2-.2 2.1-.7 2.9s-1.1 1.4-1.9 1.8c-.8.5-1.6.8-2.6 1s-1.9.3-2.9.3c-1.1 0-2.1-.1-3-.3-1-.2-1.8-.6-2.5-1.1s-1.3-1.2-1.8-2c-.4-.8-.7-1.8-.7-3h3.1c0 .9.2 1.4.5 1.9z"/></g></svg>