<?xml version="1.0" encoding="UTF-8" standalone="no"?>
<svg
   xmlns:dc="http://purl.org/dc/elements/1.1/"
   xmlns:cc="http://creativecommons.org/ns#"
   xmlns:rdf="http://www.w3.org/1999/02/22-rdf-syntax-ns#"
   xmlns:svg="http://www.w3.org/2000/svg"
   xmlns="http://www.w3.org/2000/svg"
   xmlns:sodipodi="http://sodipodi.sourceforge.net/DTD/sodipodi-0.dtd"
   xmlns:inkscape="http://www.inkscape.org/namespaces/inkscape"
   id="Layer_1"
   data-name="Layer 1"
   viewBox="0 0 495.64 298.62"
   version="1.1"
   sodipodi:docname="gintel.svg"
   inkscape:version="0.92.3 (2405546, 2018-03-11)">
  <metadata
     id="metadata41">
    <rdf:RDF>
      <cc:Work
         rdf:about="">
        <dc:format>image/svg+xml</dc:format>
        <dc:type
           rdf:resource="http://purl.org/dc/dcmitype/StillImage" />
      </cc:Work>
    </rdf:RDF>
  </metadata>
  <sodipodi:namedview
     pagecolor="#ffffff"
     bordercolor="#666666"
     borderopacity="1"
     objecttolerance="10"
     gridtolerance="10"
     guidetolerance="10"
     inkscape:pageopacity="0"
     inkscape:pageshadow="2"
     inkscape:window-width="1920"
     inkscape:window-height="1028"
     id="namedview39"
     showgrid="false"
     inkscape:zoom="0.69001693"
     inkscape:cx="247.82001"
     inkscape:cy="149.31"
     inkscape:window-x="0"
     inkscape:window-y="0"
     inkscape:window-maximized="1"
     inkscape:current-layer="Layer_1" />
  <defs
     id="defs4">
    <style
       id="style2">.cls-1{fill:#878787;}.cls-2{fill:#b54829;}.cls-2,.cls-3{isolation:isolate;}.cls-3{fill:#d68626;}</style>
  </defs>
  <title
     id="title6">GINTEL_dark grey_logo</title>
  <path
     class="cls-1"
     d="M325.69,406.92c0,9.71-9.09,17.62-20.26,17.62H278.94c-4.75,0-20.25-.93-20.25-12.86a9.18,9.18,0,0,0-18.36,0c0,18.67,15.52,31.21,38.61,31.21h26.49c21.29,0,38.62-16.14,38.62-36a9.18,9.18,0,0,0-18.36,0Z"
     transform="translate(-240.33 -144.27)"
     id="path8"
     style="fill:#ffffff;fill-opacity:1" />
  <path
     class="cls-1"
     d="M278.94,277.5c-21.29,0-38.61,16.13-38.61,36v20.94c0,19.84,17.32,36,38.61,36h24.72a9.18,9.18,0,0,0,0-18.36H278.94c-11.17,0-20.25-7.9-20.25-17.61V313.47c0-9.71,9.08-17.61,20.25-17.61h26.49c11.17,0,20.26,7.9,20.26,17.61v46.81a9.18,9.18,0,0,0,18.36,0V313.47c0-19.84-17.33-36-38.62-36Z"
     transform="translate(-240.33 -144.27)"
     id="path10"
     style="fill:#ffffff;fill-opacity:1" />
  <path
     class="cls-1"
     d="M366.08,288.69v89a9.18,9.18,0,1,0,18.35,0v-89a9.18,9.18,0,0,0-18.35,0Z"
     transform="translate(-240.33 -144.27)"
     id="path12"
     style="fill:#ffffff;fill-opacity:1" />
  <path
     class="cls-1"
     d="M446.48,277.5c-20.62,0-37.4,16.13-37.4,36l-.79,63.22a9.18,9.18,0,0,0,18.36.23l.79-63.33c0-9.83,8.54-17.73,19-17.73h22.63c10.5,0,19,7.9,19,17.61l-.79,63.22a9.18,9.18,0,0,0,18.36.23l.78-63.34c0-19.95-16.77-36.08-37.39-36.08Z"
     transform="translate(-240.33 -144.27)"
     id="path14"
     style="fill:#ffffff;fill-opacity:1" />
  <path
     class="cls-1"
     d="M531.32,230.12V353.68c0,20.74,15.09,34.14,38.43,34.14a9.18,9.18,0,0,0,0-18.36c-9.16,0-20.08-2.74-20.08-15.78V230.12a9.18,9.18,0,0,0-18.35,0Z"
     transform="translate(-240.33 -144.27)"
     id="path16"
     style="fill:#ffffff;fill-opacity:1" />
  <path
     class="cls-1"
     d="M633.77,278.91c-21.64,0-39.24,15.1-39.24,33.65v41.61c0,18.56,17.6,33.65,39.24,33.65h24.77c3.19.28,17.11,1,26.7-7.19a24.58,24.58,0,0,0,8.5-18.08,9.18,9.18,0,0,0-18.33-.87c-.15,3-1.18,4.2-2.06,5-3.32,2.87-10.53,3.18-13.5,2.87-.31,0-.67-.05-1-.05H633.77c-11.32,0-20.89-7-20.89-15.29V312.56c0-8.29,9.57-15.3,20.89-15.3h27.07c10.07,0,14.55,4.44,14.55,14.38a11.2,11.2,0,0,0,.1,1.3c.13,1.11,0,3.86-1.18,5.23s-4.49,1.73-6.26,1.73H636.84a9.18,9.18,0,0,0,0,18.35h31.21c10.94,0,17.05-4.46,20.25-8.19,7-8.14,5.52-18.68,5.34-19.85a9.84,9.84,0,0,1,.11,1.43c0-20.19-12.61-32.73-32.91-32.73Z"
     transform="translate(-240.33 -144.27)"
     id="path18"
     style="fill:#ffffff;fill-opacity:1" />
  <path
     class="cls-1"
     d="M717.61,228.11V379.56a9.18,9.18,0,0,0,18.36,0V228.11a9.18,9.18,0,0,0-18.36,0Z"
     transform="translate(-240.33 -144.27)"
     id="path20"
     style="fill:#ffffff;fill-opacity:1" />
  <path
     class="cls-1"
     d="M325.69,359v49.92a9.18,9.18,0,0,0,18.36,0V359a9.18,9.18,0,0,0-18.36,0Z"
     transform="translate(-240.33 -144.27)"
     id="path22"
     style="fill:#ffffff;fill-opacity:1" />
  <path
     class="cls-1"
     d="M529.45,279.52a9.18,9.18,0,0,0,0,18.35h30.3a9.18,9.18,0,0,0,0-18.35Z"
     transform="translate(-240.33 -144.27)"
     id="path24"
     style="fill:#ffffff;fill-opacity:1" />
  <path
     class="cls-1"
     d="M426.1,160.58a6.88,6.88,0,1,0,5.43,12.64c33-14.15,44.45-15.39,48.18-15.17-2.59,11.53-41.28,50.15-78,80.89a6.89,6.89,0,1,0,8.84,10.56c62.54-52.33,90-85.73,81.72-99.24C487,141.66,473.69,140.13,426.1,160.58Z"
     transform="translate(-240.33 -144.27)"
     id="path26"
     style="fill:#ffffff;fill-opacity:1" />
  <polygon
     class="cls-2"
     points="199.62 37.66 139.34 52.15 179.02 4.51 199.62 37.66"
     id="polygon28"
     style="fill:#ffffff;fill-opacity:1" />
  <path
     class="cls-1"
     d="M417.58,147.31,377.91,195a2.29,2.29,0,0,0,2.29,3.69l60.28-14.48a2.27,2.27,0,0,0,1.59-1.36,2.32,2.32,0,0,0-.17-2.08l-20.61-33.15a2.26,2.26,0,0,0-1.78-1.08A2.29,2.29,0,0,0,417.58,147.31Zm1.49,5.38,17.25,27.75-50.46,12.12Z"
     transform="translate(-240.33 -144.27)"
     id="path30"
     style="fill:#ffffff;fill-opacity:1" />
  <path
     class="cls-1"
     d="M340,149.81c-63.19,51.55-91.1,84.59-83,98.21,5.18,8.66,18.43,10.36,66.27-9.49a6.89,6.89,0,1,0-5.28-12.72c-33.13,13.76-44.62,14.85-48.34,14.57,2.73-11.49,41.89-49.62,79-79.91a6.88,6.88,0,1,0-8.7-10.66Z"
     transform="translate(-240.33 -144.27)"
     id="path32"
     style="fill:#ffffff;fill-opacity:1" />
  <polygon
     class="cls-3"
     points="69.42 72.73 129.88 59.01 89.61 106.14 69.42 72.73"
     id="polygon34"
     style="fill:#ffffff;fill-opacity:1" />
  <path
     class="cls-1"
     d="M369.7,201l-60.45,13.72a2.29,2.29,0,0,0-1.46,3.42L328,251.59a2.29,2.29,0,0,0,3.7.31L372,204.77A2.29,2.29,0,0,0,369.7,201Zm-5.73,6L330.26,246.5l-16.9-28C318.28,217.41,353.94,209.32,364,207.05Z"
     transform="translate(-240.33 -144.27)"
     id="path36"
     style="fill:#ffffff;fill-opacity:1" />
</svg>
