<svg id="Layer_1" data-name="Layer 1" xmlns="http://www.w3.org/2000/svg" viewBox="0 0 352.56 270"><defs><style>.cls-1{fill:#004c93;}.cls-2,.cls-3{fill:#fff;}.cls-3{fill-rule:evenodd;}</style></defs><title>lindbak_logo_PMS287_hvit_kant_NY</title><rect class="cls-1" x="6" y="6" width="340.56" height="258" rx="10.32" ry="10.32"/><path class="cls-2" d="M557,201.73a10.32,10.32,0,0,1,10.32,10.32V449.41A10.32,10.32,0,0,1,557,459.73H237a10.32,10.32,0,0,1-10.32-10.32V212.05A10.32,10.32,0,0,1,237,201.73H557m0-6H237a16.34,16.34,0,0,0-16.32,16.32V449.41A16.34,16.34,0,0,0,237,465.73H557a16.34,16.34,0,0,0,16.32-16.32V212.05A16.34,16.34,0,0,0,557,195.73Z" transform="translate(-220.72 -195.73)"/><path class="cls-3" d="M449.44,375.8l-.17-1.25-.28-1.21-.38-1.18-.49-1.14-.59-1.11-.66-1-.76-1-.83-.9-.9-.83-1-.73-1.08-.66-1.11-.52-1.18-.42-1.21-.28v-.14l1.15-.66,1-.87.9-1,.8-1.14.62-1.22.52-1.28.38-1.32.24-1.35.07-1.28-.07-1.46-.14-1.39-.21-1.25-.35-1.18-.38-1.07-.48-1-.56-.9-.66-.87-.7-.76-.76-.69-.8-.66-.9-.56-.9-.52-1-.45-1-.38-1.08-.35-1.08-.28-1.14-.24-1.18-.21-1.18-.14-1.21-.1-1.21-.11-1.25,0h-8.94v0h-2.1v53.27H431l1.25,0,1.28-.07,1.25-.14,1.25-.18,1.21-.24,1.18-.31,1.18-.38,1.11-.42,1.07-.52,1-.56,1-.59.9-.66.87-.76.76-.83.73-.9.63-.94.55-1,.45-1.11L449,381l.28-1.25.17-1.35,0-1.42Zm-27.61-31.19h6.48l1.29.1,1.21.1L432,345l1.08.28,1,.38.94.49.83.59.73.73.59.87.52,1,.35,1.18.24,1.32.07,1.53-.1,1.53-.21,1.35-.38,1.18-.49,1-.62.87-.73.73-.83.63-.94.48-1,.38-1.08.28-1.18.21-1.25.14-1.28.07h-6.34Zm20.95,33.44-.24,1.28-.42,1.14-.52,1-.66.9-.76.76-.83.69-1,.55-1,.45-1.11.38-1.15.31-1.18.21-1.22.14-1.21.07-1.25,0h-8.43V367.54h8.63l1.25.07,1.25.14,1.25.21,1.21.24,1.18.35,1.14.45,1.08.52,1,.66.87.73.73.87.63,1,.45,1.11.28,1.28.1,1.42Z" transform="translate(-220.72 -195.73)"/><polygon class="cls-3" points="41.73 190.16 69.81 190.16 69.81 196.19 35.1 196.19 35.1 142.94 41.73 142.94 41.73 190.16 41.73 190.16"/><polygon class="cls-3" points="82.62 196.19 76 196.19 76 142.94 82.62 142.94 82.62 196.19 82.62 196.19"/><polygon class="cls-3" points="288.84 196.19 282.21 196.19 282.21 142.94 288.84 142.94 288.84 196.19 288.84 196.19"/><polygon class="cls-3" points="136.53 150.99 136.53 142.94 135.81 142.94 134.25 142.94 133.63 142.94 129.91 142.94 129.91 182.29 90.84 140.38 90.84 196.19 97.47 196.19 97.47 157.65 136.54 198.77 136.54 150.99 136.53 150.99"/><path class="cls-3" d="M409.43,363.66l-.07-1.35-.14-1.29-.21-1.28-.24-1.25-.28-1.18-.35-1.15-.38-1.11-.45-1.11-.49-1-.52-1-.55-1-.63-.9-.62-.9-.69-.87-.73-.83-.76-.77-.8-.76-.83-.69-.9-.66-.9-.66-.94-.59-1-.55-1-.52-1-.48-1-.49-1.08-.38-1.11-.38-1.14-.35-1.15-.31-1.18-.28-1.18-.24-1.21-.17-1.21-.17-1.25-.14-1.25-.07-1.28-.07h-16v53.25h15.87l1.25-.07,1.25-.07,1.25-.14,1.21-.14,1.21-.21,1.18-.21,1.15-.28,1.14-.28,1.11-.35,1.11-.35,1.08-.42,1-.45,1-.45,1-.49,1-.55.94-.55.9-.62.87-.66.83-.69.8-.7.76-.76.73-.8.69-.83.66-.87.59-.9.56-.94.55-1,.49-1,.45-1.07.42-1.08.34-1.11.35-1.18.28-1.18.21-1.25.17-1.25.14-1.32.07-1.32,0-1.39Zm-6.59,3.09-.1,1.35-.17,1.32-.24,1.25-.28,1.18-.35,1.11-.42,1.11-.45,1-.52,1-.59.9-.62.87-.66.83-.73.77-.76.73-.8.66-.83.62-.9.59-.94.52-.94.48-1,.45-1,.42-1,.35-1.11.35-1.11.28-1.15.24-1.14.24-1.18.17-1.21.14-1.21.11-1.25.07-8.61,0V344.74h7.37l1.25.07,1.25.07,1.21.1,1.21.14,1.18.17,1.14.21,1.15.24,1.11.31,1.11.31,1,.38,1,.38,1,.45.94.49.94.55.9.56.83.62.8.66.76.73.73.76.66.83.62.87.59.9.52,1,.45,1,.42,1.08.35,1.11.28,1.21.24,1.25.17,1.28.1,1.39,0,1.42Z" transform="translate(-220.72 -195.73)"/><polygon class="cls-3" points="292.62 166.96 316.16 142.94 316.16 142.94 324.83 142.94 300.86 166.92 325.28 196.19 316.3 196.19 292.62 166.96"/><path class="cls-3" d="M492.78,391.93h7.15l-25.47-55.58L449,391.93h7.15l3.76-8.39H489Zm-30.19-14.48,11.87-26.52,11.85,26.52Z" transform="translate(-220.72 -195.73)"/></svg>