<?xml version="1.0" encoding="utf-8"?>
<!-- Generator: Adobe Illustrator 19.1.0, SVG Export Plug-In . SVG Version: 6.00 Build 0)  -->
<svg version="1.1" id="Layer_1" xmlns="http://www.w3.org/2000/svg" xmlns:xlink="http://www.w3.org/1999/xlink" x="0px" y="0px"
	 viewBox="0 0 228.7 59.9" enable-background="new 0 0 228.7 59.9" xml:space="preserve">
<g>
	<g>
		<rect x="-1.5" y="44.3" fill="none" width="170.7" height="17.7"/>
		<path fill="#231F20" d="M0.2,44.3h1.2v12H0.2V44.3z"/>
		<path fill="#231F20" d="M4.5,47.7h1.1V49c0,0.4,0,0.7,0,0.7h0c0.3-0.8,1.4-2.2,3.4-2.2c2.1,0,2.9,1.2,2.9,3.3v5.4h-1.2v-5.1
			c0-1.3-0.2-2.5-1.9-2.5c-1.5,0-2.7,1-3.1,2.4c-0.1,0.4-0.1,0.7-0.1,1.2v4.1H4.5V47.7z"/>
		<path fill="#231F20" d="M15,48.8h-1.1v-1H15v-0.4c0-2.8,2-3.2,3-3.2c0.3,0,0.5,0,0.5,0v1c0,0-0.2,0-0.4,0c-0.7,0-1.9,0.2-1.9,2.1
			v0.4h2.2v1h-2.2v7.5H15V48.8z"/>
		<path fill="#231F20" d="M23.9,47.5c2.5,0,4.5,1.9,4.5,4.4c0,2.6-2,4.5-4.5,4.5c-2.5,0-4.5-1.9-4.5-4.5
			C19.3,49.4,21.4,47.5,23.9,47.5z M23.9,55.4c1.8,0,3.3-1.5,3.3-3.5c0-1.9-1.5-3.4-3.3-3.4c-1.8,0-3.3,1.4-3.3,3.4
			C20.5,53.9,22,55.4,23.9,55.4z"/>
		<path fill="#231F20" d="M30.6,47.7h1.1v1.5c0,0.4,0,0.7,0,0.7h0c0.4-1.3,1.4-2.3,2.7-2.3c0.2,0,0.5,0.1,0.5,0.1v1.1
			c0,0-0.2,0-0.4,0c-1.2,0-2.1,1-2.5,2.2c-0.2,0.5-0.2,1.1-0.2,1.7v3.6h-1.2V47.7z"/>
		<path fill="#231F20" d="M36.6,47.7h1.1V49c0,0.4,0,0.7,0,0.7h0c0.4-1.2,1.8-2.2,3.1-2.2c1.6,0,2.4,0.7,2.7,2.1h0
			c0.5-1.2,1.7-2.1,3.2-2.1c2.1,0,2.8,1.2,2.8,3.3v5.4h-1.2v-5.2c0-1.4-0.3-2.6-1.9-2.6c-1.3,0-2.4,1.2-2.7,2.4
			c-0.1,0.4-0.2,0.8-0.2,1.2v4.1h-1.2v-5.2c0-1.3-0.2-2.6-1.8-2.6c-1.4,0-2.5,1.2-2.8,2.5c-0.1,0.4-0.1,0.7-0.1,1.1v4.1h-1.2V47.7z"
			/>
		<path fill="#231F20" d="M56.8,51h0.5v-0.2c0-1.7-0.9-2.2-2.1-2.2c-1.4,0-2.4,0.8-2.4,0.8l-0.5-0.9c0,0,1.1-1,3-1
			c2.1,0,3.2,1.1,3.2,3.3v5.5h-1.1v-0.9c0-0.4,0-0.7,0-0.7h0c0,0-0.7,1.9-2.9,1.9c-1.4,0-2.9-0.8-2.9-2.5C51.5,51,55.3,51,56.8,51z
			 M54.6,55.5c1.6,0,2.6-1.7,2.6-3.2v-0.4h-0.5c-1.3,0-4,0.1-4,1.9C52.7,54.7,53.3,55.5,54.6,55.5z"/>
		<path fill="#231F20" d="M61,54.4c0,0,1,1,2.6,1c0.9,0,1.7-0.5,1.7-1.4c0-1.9-4.6-1.4-4.6-4.2c0-1.5,1.4-2.4,2.9-2.4
			c1.8,0,2.6,0.9,2.6,0.9l-0.5,0.9c0,0-0.7-0.8-2.1-0.8c-0.9,0-1.7,0.4-1.7,1.3c0,1.9,4.6,1.4,4.6,4.2c0,1.4-1.2,2.4-2.9,2.4
			c-2.1,0-3.2-1.2-3.2-1.2L61,54.4z"/>
		<path fill="#231F20" d="M69.8,47.7v8.9c0,2.8-2,3.2-3,3.2c-0.3,0-0.5-0.1-0.5-0.1v-1c0,0,0.2,0,0.4,0c0.7,0,2-0.2,2-2.2v-8.8H69.8
			z M68.6,44.3h1.2v1.4h-1.2V44.3z"/>
		<path fill="#231F20" d="M76.4,47.5c2.5,0,4.5,1.9,4.5,4.4c0,2.6-2,4.5-4.5,4.5s-4.5-1.9-4.5-4.5C71.9,49.4,73.9,47.5,76.4,47.5z
			 M76.4,55.4c1.8,0,3.3-1.5,3.3-3.5c0-1.9-1.5-3.4-3.3-3.4c-1.8,0-3.3,1.4-3.3,3.4C73.1,53.9,74.6,55.4,76.4,55.4z"/>
		<path fill="#231F20" d="M83.1,47.7h1.1V49c0,0.4,0,0.7,0,0.7h0c0.3-0.8,1.4-2.2,3.4-2.2c2.1,0,2.9,1.2,2.9,3.3v5.4h-1.2v-5.1
			c0-1.3-0.2-2.5-1.9-2.5c-1.5,0-2.7,1-3.1,2.4c-0.1,0.4-0.1,0.7-0.1,1.2v4.1h-1.2V47.7z"/>
		<path fill="#231F20" d="M93.2,54.4c0,0,1,1,2.6,1c0.9,0,1.7-0.5,1.7-1.4c0-1.9-4.6-1.4-4.6-4.2c0-1.5,1.4-2.4,2.9-2.4
			c1.8,0,2.6,0.9,2.6,0.9l-0.5,0.9c0,0-0.7-0.8-2.1-0.8c-0.9,0-1.7,0.4-1.7,1.3c0,1.9,4.6,1.4,4.6,4.2c0,1.4-1.2,2.4-2.9,2.4
			c-2.1,0-3.2-1.2-3.2-1.2L93.2,54.4z"/>
		<path fill="#231F20" d="M100.7,54.4c0,0,1,1,2.6,1c0.9,0,1.7-0.5,1.7-1.4c0-1.9-4.6-1.4-4.6-4.2c0-1.5,1.4-2.4,2.9-2.4
			c1.8,0,2.6,0.9,2.6,0.9l-0.5,0.9c0,0-0.7-0.8-2.1-0.8c-0.9,0-1.7,0.4-1.7,1.3c0,1.9,4.6,1.4,4.6,4.2c0,1.4-1.2,2.4-2.9,2.4
			c-2.1,0-3.2-1.2-3.2-1.2L100.7,54.4z"/>
		<path fill="#231F20" d="M107.5,58.4c0,0,0.5,0.4,1,0.4c0.7,0,1.3-0.6,1.6-1.4l0.5-1.2l-3.6-8.5h1.3l2.5,6.2
			c0.2,0.4,0.3,0.9,0.3,0.9h0c0,0,0.1-0.5,0.3-0.9l2.5-6.2h1.3L111,58c-0.4,1.1-1.3,1.8-2.5,1.8c-0.9,0-1.5-0.5-1.5-0.5L107.5,58.4z
			"/>
		<path fill="#231F20" d="M116.7,54.4c0,0,1,1,2.6,1c0.9,0,1.7-0.5,1.7-1.4c0-1.9-4.6-1.4-4.6-4.2c0-1.5,1.4-2.4,2.9-2.4
			c1.8,0,2.6,0.9,2.6,0.9l-0.5,0.9c0,0-0.7-0.8-2.1-0.8c-0.9,0-1.7,0.4-1.7,1.3c0,1.9,4.6,1.4,4.6,4.2c0,1.4-1.2,2.4-2.9,2.4
			c-2.1,0-3.2-1.2-3.2-1.2L116.7,54.4z"/>
		<path fill="#231F20" d="M124.7,48.8h-1.1v-1h1.1v-2.5h1.1v2.5h2.1v1h-2.1V53c0,2,1.3,2.3,1.9,2.3c0.2,0,0.4,0,0.4,0v1
			c0,0-0.2,0-0.5,0c-1,0-3-0.3-3-3.2V48.8z"/>
		<path fill="#231F20" d="M133.7,47.5c2.4,0,3.6,1.8,3.6,4c0,0.2,0,0.6,0,0.6h-6.6c0.1,2.2,1.5,3.4,3.3,3.4c1.6,0,2.6-1,2.6-1
			l0.5,0.9c0,0-1.2,1.2-3.2,1.2c-2.6,0-4.5-1.8-4.5-4.5C129.5,49.2,131.4,47.5,133.7,47.5z M136.1,51.1c-0.1-1.8-1.2-2.6-2.4-2.6
			c-1.4,0-2.7,0.9-2.9,2.6H136.1z"/>
		<path fill="#231F20" d="M139.5,47.7h1.1V49c0,0.4,0,0.7,0,0.7h0c0.4-1.2,1.8-2.2,3.1-2.2c1.6,0,2.4,0.7,2.7,2.1h0
			c0.5-1.2,1.7-2.1,3.2-2.1c2.1,0,2.8,1.2,2.8,3.3v5.4h-1.2v-5.2c0-1.4-0.3-2.6-1.9-2.6c-1.3,0-2.4,1.2-2.7,2.4
			c-0.1,0.4-0.2,0.8-0.2,1.2v4.1h-1.2v-5.2c0-1.3-0.2-2.6-1.8-2.6c-1.4,0-2.5,1.2-2.8,2.5c-0.1,0.4-0.1,0.7-0.1,1.1v4.1h-1.2V47.7z"
			/>
		<path fill="#231F20" d="M158.7,47.5c2.4,0,3.6,1.8,3.6,4c0,0.2,0,0.6,0,0.6h-6.6c0.1,2.2,1.5,3.4,3.3,3.4c1.6,0,2.6-1,2.6-1
			l0.5,0.9c0,0-1.2,1.2-3.2,1.2c-2.6,0-4.5-1.8-4.5-4.5C154.5,49.2,156.4,47.5,158.7,47.5z M161.1,51.1c-0.1-1.8-1.2-2.6-2.4-2.6
			c-1.4,0-2.7,0.9-2.9,2.6H161.1z"/>
		<path fill="#231F20" d="M164.5,47.7h1.1v1.5c0,0.4,0,0.7,0,0.7h0c0.4-1.3,1.4-2.3,2.7-2.3c0.2,0,0.5,0.1,0.5,0.1v1.1
			c0,0-0.2,0-0.4,0c-1.2,0-2.1,1-2.5,2.2c-0.2,0.5-0.2,1.1-0.2,1.7v3.6h-1.2V47.7z"/>
	</g>
	<g>
		<path fill="#231F20" d="M23.7,36.8h-3.1L3.6,15.9v20.9H0.2V9.6h2.9l17.1,21v-21h3.4V36.8z"/>
		<path fill="#231F20" d="M36.6,21.7c3.3,0,5.7,2.5,5.7,6c0,3.9-2.2,6.3-5.7,6.3c-3.2,0-5.4-2.5-5.4-6.3
			C31.2,24.2,33.4,21.7,36.6,21.7z M36.6,18.5c-5,0-8.8,4-8.8,9.1c0,5.5,3.7,9.5,8.8,9.5c5.3,0,9-3.8,9-9.5
			C45.6,22.4,41.8,18.5,36.6,18.5z"/>
		<path fill="#231F20" d="M52.8,18.9V23h0.1c1.7-3.1,3.3-4.5,4.8-4.5c1.3,0,2.6,0.7,4,2.1l-1.7,3.1c-1-1-2.3-1.8-3.1-1.8
			c-2.3,0-4,2.4-4,5.5v9.4h-3.3V18.9H52.8z"/>
		<path fill="#231F20" d="M75.3,23.6c-1.9-1.4-3.2-1.8-4.6-1.8c-3,0-5.1,2.4-5.1,6.1c0,3.7,2.2,5.9,5.6,5.9c1.4,0,2.7-0.4,4.4-1.2
			v3.5c-1.1,0.6-3.2,1-5,1c-5,0-8.5-3.7-8.5-9c0-5.9,3.2-9.6,8.2-9.6c1.9,0,3.2,0.5,4.8,1.2V23.6z"/>
		<path fill="#231F20" d="M87.1,21.7c3.3,0,5.7,2.5,5.7,6c0,3.9-2.2,6.3-5.7,6.3c-3.2,0-5.4-2.5-5.4-6.3
			C81.7,24.2,84,21.7,87.1,21.7z M87.1,18.5c-5,0-8.8,4-8.8,9.1c0,5.5,3.7,9.5,8.8,9.5c5.3,0,9-3.8,9-9.5
			C96.1,22.4,92.3,18.5,87.1,18.5z"/>
		<path fill="#231F20" d="M103,21.3L103,21.3c1.3-1.7,3.2-2.7,5-2.7c3.2,0,5.7,2.3,5.7,7.2v11h-3.3V25.7c0-2.6-1.3-4.3-3.3-4.3
			c-1.4,0-2.6,0.7-4.2,2.6v12.8h-3.3V18.9h3.3V21.3z"/>
		<path fill="#231F20" d="M128.1,23.5c-1.9-1.3-3.6-1.9-4.8-1.9c-1.3,0-2.2,0.7-2.2,1.6c0,0.8,1.1,1.8,4,3.6c2.7,2,3.7,3.2,3.7,5
			c0,3.1-2.3,5.3-5.5,5.3c-2,0-3.6-0.4-5.8-1.6v-3.8c2.2,1.6,4.1,2.4,5.5,2.4c1.3-0.1,2.4-0.8,2.4-2c0-2.5-7.8-3.8-7.8-8.6
			c0-3,2.2-4.9,5.5-4.9c1.6,0,3.2,0.5,4.9,1.5V23.5z"/>
		<path fill="#231F20" d="M143.2,36.8v-2.3c-1.4,1.6-3.3,2.6-4.9,2.6c-3.4,0-5.8-2.6-5.8-7.1V18.9h3.3v11.4c0,2.5,1.2,3.9,3.4,3.9
			c1.5,0,2.9-0.9,4-2.5V18.9h3.3v17.9H143.2z"/>
		<path fill="#231F20" d="M154.6,36.8h-3.3V9.6h3.3V36.8z"/>
		<path fill="#231F20" d="M163.2,18.9h5.3v3.2h-5.3v9.2c0,2.1,1.4,2.7,2.4,2.7c1.2,0,2.4-0.4,3.7-1.3V36c-1.2,0.7-2.9,1.2-4,1.2
			c-3.6,0-5.4-2.4-5.4-5.6v-9.4H157v-0.4l6.2-6.5V18.9z"/>
	</g>
	<g>
		<path fill="#231F20" d="M203.5,0.2l-11.2,11.2l11.2,11.2l11.2-11.2L203.5,0.2z M178.5,25.2l11.2,11.2l11.2-11.2L189.7,14
			L178.5,25.2z M217.3,14l-11.2,11.2l11.2,11.2l11.2-11.2L217.3,14z"/>
		<circle fill="#231F20" cx="203.5" cy="39" r="8.7"/>
	</g>
	<g>
	</g>
</g>
<g>
</g>
<g>
</g>
<g>
</g>
<g>
</g>
<g>
</g>
<g>
</g>
</svg>
