<?xml version="1.0" encoding="utf-8"?>
<!-- Generator: Adobe Illustrator 21.1.0, SVG Export Plug-In . SVG Version: 6.00 Build 0)  -->
<svg version="1.1" id="Layer_1" xmlns="http://www.w3.org/2000/svg" xmlns:xlink="http://www.w3.org/1999/xlink" x="0px" y="0px"
	 viewBox="0 0 570 182" style="enable-background:new 0 0 570 182;" xml:space="preserve">
<style type="text/css">
	.st0{fill:#666766;}
	.st1{fill:#333333;}
	.st2{fill:#F2F2F2;}
	.st3{fill:#FFFFFF;}
</style>
<g>
	<g>
		<path class="st1" d="M69.8,98H84c0.1,4.9,2,5.3,6.1,5.3h17.4c3,0,6.1-0.3,6.1-3.9c0-4-1.7-4.3-19.9-4.3
			c-21.3,0-23.8-2.6-23.8-13.9c0-8.4,0.8-14.8,18.7-14.8h19.8c16.4,0,17.9,5.6,17.9,13.7v1.5h-14.2c0-3.4-0.4-4.8-6.9-4.8H89.4
			c-3.2,0-5.4,1.1-5.4,3.6c0,4,1.7,4.2,16.9,4.1c22-0.1,27.2,1.3,27.2,14.8c0,12.5-4.2,14.5-23.1,14.5H87.9
			c-12.9,0-18.1-2.4-18.1-12.5V98z"/>
		<path class="st1" d="M137.7,66.9h14.2v46.3h-14.2V66.9z"/>
		<path class="st1" d="M161.2,83.1c0-13.5,7.6-16.7,20.4-16.7h21.3c16.1,0,18.3,5.8,18.3,14.8v1.5h-13.9c0-4.6-2.6-5.2-7.2-5.2
			h-15.4c-7.2,0-9,1.7-9,9.6v5.7c0,7.9,1.9,9.6,9,9.6h15.1c3.7,0,7.4-0.6,7.4-5v-1.3h-17.6v-9.6h31.8v13.2
			c0,13.3-6.9,13.9-22.9,13.9h-17.1c-12.8,0-20.4-3.2-20.4-16.7V83.1z"/>
		<path class="st1" d="M230,66.9h22l26.6,33.6h0.1V66.9H293v46.3h-22l-26.6-33.6h-0.1v33.6H230V66.9z"/>
		<path class="st1" d="M303.3,66.9h14.2v46.3h-14.2V66.9z"/>
		<path class="st1" d="M326.8,83.1c0-13.5,7.6-16.7,20.4-16.7h16.7c20.2,0,22.8,4.3,22.7,17.4h-14.2v-1.3c0-3.3-2.4-4.3-6.6-4.3
			h-15.5c-7.5,0-8.9,3.5-8.9,9.3v5c0,6.7,1.4,9.3,8.1,9.3h15.1c6.4,0,8.3-0.6,8.3-6.4h14.2v4.3c0,7.8-2.8,13.9-17.1,13.9h-22.9
			c-12.8,0-20.4-3.2-20.4-16.7V83.1z"/>
		<path class="st1" d="M414,66.9h18.5l25.4,46.3h-15.8l-4.4-8.2H409l-4.2,8.2H389L414,66.9z M414.3,95h18.1l-9.2-17.4L414.3,95z"/>
		<path class="st1" d="M451.6,66.9h54v11.5h-19.9v34.8h-14.2V78.4h-19.9V66.9z"/>
	</g>
</g>
</svg>
