<!-- Created with Inkscape (http://www.inkscape.org/) -->
<svg id="svg2" xmlns:rdf="http://www.w3.org/1999/02/22-rdf-syntax-ns#" xmlns="http://www.w3.org/2000/svg" xml:space="preserve" viewBox="0 0 728.38 89.65" version="1.1" xmlns:cc="http://creativecommons.org/ns#" xmlns:dc="http://purl.org/dc/elements/1.1/"><metadata id="metadata8"><rdf:RDF><cc:Work rdf:about=""><dc:format>image/svg+xml</dc:format><dc:type rdf:resource="http://purl.org/dc/dcmitype/StillImage"/><dc:title/></cc:Work></rdf:RDF></metadata><g id="g10" transform="matrix(1.25,0,0,-1.25,0,89.65)"><g id="g12" fill-rule="nonzero" transform="scale(0.1,0.1)"><path id="path14" fill="#000" d="m0,281.49,63.606,0,0-19.883c0-50.085,26.238-70.761,96.21-70.761h146.3c102.59,0,135.2,3.965,135.2,64.394v3.184c0,38.965-11.141,60.43-93.036,60.43h-210.7c-96.211,0-132,31.015-132,108.14v23.867c0,65.985,37.375,102.56,205.94,102.56h104.96c154.24,0,175.73-44.523,175.73-101.77v-21.473h-63.613v3.973c0,62.023-41.359,63.613-116.11,63.613h-119.24c-97.824,0-119.28-9.539-119.28-55.664v-15.106c0-33.39,11.141-52.472,82.695-52.472h180.48c102.57,0,172.54-10.34,172.54-120.07v-1.582c0-113.71-104.94-117.69-188.43-117.69h-125.64c-100.99,0-195.61,0-195.61,121.66v24.648"/><path id="path16" fill="#000" d="m1052.5,381.68c0,78.719-25.45,116.08-121.65,116.08h-135.96c-89.856,0-124.06-46.903-124.06-116.88v-77.137c0-97.004,60.449-112.9,132.79-112.9h121.64c79.527,0,127.23,17.492,127.23,111.32v79.512zm-450.05,165.38,63.613,0,0-64.403,1.61,0c19.875,49.286,75.527,70.762,135.96,70.762h129.59c97.028,0,187.67-31.016,187.67-170.95v-71.551c0-131.2-58.05-175.74-198.77-175.74h-130.42c-72.343,0-104.94,18.281-119.28,60.433h-1.582v-195.61h-68.387v547.06"/><path id="path18" fill="#000" d="m1987.8,547.06,63.62,0,0-58.836,1.6,0c25.44,52.48,77.12,65.195,124.01,65.195h64.42c128.01,0,170.15-41.348,170.15-140.73v-48.504h-63.61v17.5c0,100.18-20.67,116.08-142.32,116.08h-42.15c-72.34,0-107.34-46.113-107.34-98.594v-257.62h-68.38v405.51"/><path id="path20" fill="#000" d="m2550.2,491.4-89.06,0,0,55.653,89.06,0,0,96.203,68.37,0,0-96.203,271.2,0,0-55.653-271.2,0,0-201.96c0-75.547,26.25-98.594,100.98-98.594h21.48c90.65,0,105.01,19.082,105.01,104.16v30.207h55.66v-44.523c0-81.094-7.94-145.51-155.92-145.51h-37.35c-128.03,0-158.23,62.027-158.23,128.02v228.2"/><path id="path22" fill="#000" d="m2988.9,547.06,143.13,0,0-77.117,1.58,0c17.5,64.394,79.52,83.476,148.69,83.476,111.32,0,155.05-47.707,155.05-159.82,0-10.34-0.8-21.465-1.59-35.782h-131.98c0,51.692-11.93,76.329-73.17,76.329-52.46,0-89.06-19.883-89.06-68.379v-224.22h-152.65v405.51"/><path id="path24" fill="#000" d="m3765.7,230.6c104.95,0,114.5,15.898,114.5,42.929,0,30.215-8.75,41.348-93.03,41.348h-67.58c-64.41,0-77.93-14.309-77.93-47.707,0-26.231,20.68-36.57,80.3-36.57h43.74zm-271.94,53.261c0,110.53,76.33,116.9,224.23,116.9,83.48,0,129.61-2.395,159.02-32.598v35.77c0,39.758-11.92,54.074-71.56,54.074h-89.84c-44.54,0-57.26-3.977-58.84-32.598h-147.9c0,109.72,54.07,128.01,182.89,128.01h177.29c104.98,0,160.63-50.098,160.63-145.51v-266.36h-144.71v46.129c-42.15-43.746-58.06-52.496-134.38-52.496h-104.16c-93.03-0.801-152.67,19.902-152.67,115.31v33.379"/><path id="path26" fill="#000" d="m4254.6,320.45c0-45.332,7.15-70.769,80.3-70.769h89.85c60.42,0,92.23,13.515,92.23,74.734v39.758c0,61.23-31.81,74.746-92.23,74.746h-89.85c-73.15,0-80.3-25.449-80.3-70.762v-47.707zm-147.9,60.43c0,103.35,23.86,172.53,217.08,172.53h45.31c62.82,0,127.23-17.492,136.77-81.105h1.58v244.9h152.66v-575.67h-143.12v74.742h-1.58c-16.71-50.113-54.88-81.109-147.1-81.109h-44.52c-193.22,0-217.08,69.176-217.08,172.55v73.153"/><path id="path28" fill="#000" d="m5016.8,230.6c104.95,0,114.49,15.898,114.49,42.929,0,30.215-8.75,41.348-93.02,41.348h-67.61c-64.39,0-77.91-14.309-77.91-47.707,0-26.231,20.67-36.57,80.31-36.57h43.74zm-271.93,53.261c0,110.53,76.33,116.9,224.22,116.9,83.48,0,129.6-2.395,159.03-32.598v35.77c0,39.758-11.94,54.074-71.56,54.074h-89.86c-44.53,0-57.25-3.977-58.83-32.598h-147.9c0,109.72,54.06,128.01,182.88,128.01h177.32c104.94,0,160.6-50.098,160.6-145.51v-266.36h-144.71v46.129c-42.14-43.746-58.04-52.496-134.38-52.496h-104.14c-93.05-0.801-152.67,19.902-152.67,115.31v33.379"/><path id="path30" fill="#000" d="m5378.5,547.06,143.14,0,0-77.117,1.58,0c17.5,64.394,79.51,83.476,148.69,83.476,111.32,0,155.05-47.707,155.05-159.82,0-10.34-0.81-21.465-1.6-35.782h-131.97c0,51.692-11.94,76.329-73.18,76.329-52.47,0-89.05-19.883-89.05-68.379v-224.22h-152.66v405.51"/><path id="path32" fill="#c4122e" d="m1619.6,498.64-139.15,0c-79.49,0-135.16-18.27-135.16-112.9v-81.105c0-94.629,55.67-112.92,135.16-112.92h139.15c79.49,0,135.16,18.289,135.16,112.92v81.105c0,94.629-55.67,112.9-135.16,112.9"/><path id="path34" fill="#c4122e" d="m1823.2,300.64c0-133.57-94.63-164.57-224.22-164.57h-97.82c-129.59,0-224.21,30.996-224.21,164.57v89.05c0,133.59,94.62,164.6,224.21,164.6h97.82c129.59,0,224.22-31.016,224.22-164.6v-89.05zm-210.59,311.92-125.07,0c-165.7,0-286.67-39.657-286.67-210.45v-113.88c0-170.82,120.97-210.44,286.67-210.44h125.07c165.72,0,286.69,39.629,286.69,210.44v113.88c0,170.79-120.97,210.45-286.69,210.45"/></g></g></svg>
