<svg height="189" viewBox="0 0 886 189" width="886" xmlns="http://www.w3.org/2000/svg"><path d="m143.792201 63.514-68.944 123.988h-1.112l-72.83600002-123.988h46.14800002l28.356 57.824 25.02-57.824zm138.737085 0v121.486h-38.92v-15.012c-11.676058 12.232061-25.205256 18.348-40.588 18.348-17.977423 0-32.572277-5.374613-43.785-16.124-11.212722-10.749387-16.819-26.687894-16.819-47.816 0-13.344067 2.73364-25.0662828 8.201-35.167 5.467361-10.1007172 12.741622-17.9309722 21.823-23.491 9.081379-5.5600278 18.811282-8.34 29.19-8.34 10.749387 0 19.274636 1.6216504 25.576 4.865 6.301365 3.2433495 11.86131 7.8303037 16.68 13.761l2.502-12.51zm-68.388 93.13c13.529401 0 23.35197-6.115939 29.468-18.348v-29.746c-2.224011-5.930696-6.069639-10.6566491-11.537-14.178-5.46736-3.5213509-11.907629-5.282-19.321-5.282-8.525376 0-15.799636 3.1506352-21.823 9.452-6.023363 6.301365-9.035 14.270618-9.035 23.908 0 6.301365 1.482652 12.092974 4.448 17.375 2.965349 5.282026 6.903643 9.405652 11.815 12.371 4.911358 2.965348 10.239638 4.448 15.985 4.448zm137.347086-65.33c3.336017-6.4866991 7.922971-12.3246407 13.761-17.514s11.814969-9.220319 17.931-12.093c6.11603-2.872681 10.934649-4.309 14.456-4.309l-1.946 38.92c-1.112006-.1853343-2.687323-.278-4.726-.278-7.784039 0-14.641304 2.0386463-20.572 6.116-5.930696 4.077354-10.471318 9.312968-13.622 15.707-3.150683 6.394032-4.726 12.926967-4.726 19.599v47.538h-38.642v-121.486h35.028zm105.655085-27.8v121.486h-38.92v-121.486zm-39.754-43.09c0-5.5600278 2.177645-10.2396477 6.533-14.039 4.355355-3.79935233 9.312972-5.699 14.873-5.699 5.374694 0 10.193312 1.89964767 14.456 5.699 4.262688 3.7993523 6.394 8.4789722 6.394 14.039s-2.131312 10.1933148-6.394 13.9-9.081306 5.56-14.456 5.56c-5.560028 0-10.517645-1.8533148-14.873-5.56s-6.533-8.3399722-6.533-13.9zm201.287086 43.09v121.486h-38.92v-15.012c-11.676059 12.232061-25.205257 18.348-40.588 18.348-17.977424 0-32.572278-5.374613-43.785-16.124-11.212723-10.749387-16.819-26.687894-16.819-47.816 0-13.344067 2.733639-25.0662828 8.201-35.167 5.46736-10.1007172 12.741621-17.9309722 21.823-23.491 9.081378-5.5600278 18.811281-8.34 29.19-8.34 10.749387 0 19.274635 1.6216504 25.576 4.865 6.301365 3.2433495 11.861309 7.8303037 16.68 13.761l2.502-12.51zm-68.388 93.13c13.529401 0 23.351969-6.115939 29.468-18.348v-29.746c-2.224011-5.930696-6.06964-10.6566491-11.537-14.178-5.467361-3.5213509-11.90763-5.282-19.321-5.282-8.525376 0-15.799637 3.1506352-21.823 9.452-6.023364 6.301365-9.035 14.270618-9.035 23.908 0 6.301365 1.482652 12.092974 4.448 17.375s6.903642 9.405652 11.815 12.371 10.239638 4.448 15.985 4.448zm183.773085-98.968c11.490724 0 21.081628 3.4286324 28.773 10.286s11.629666 15.5679472 11.815 26.132v90.906h-38.92v-76.45c-.556003-11.8613926-6.48661-17.792-17.792-17.792-8.896044 0-16.031306 4.1699583-21.406 12.51-5.374693 8.340042-8.062 19.089268-8.062 32.248v49.484h-38.92v-121.486h35.306l2.78 19.46c4.448022-7.9693732 10.610294-14.1779778 18.487-18.626s17.189613-6.672 27.939-6.672zm121.779086-47.538v52.82h29.468v30.302h-29.468v91.74h-38.92v-91.74h-18.904v-30.302h18.904v-52.82z" fill="#fff" fill-rule="evenodd"/></svg>