<svg id="TDC-logo-text" viewBox="0 0 234 98">
    <g stroke="none" stroke-width="1" fill="none" fill-rule="evenodd">
        <g transform="translate(-366.000000, -205.000000)" fill="#9FC418">
            <g transform="translate(366.000000, 205.000000)">
                <g transform="translate(1.000000, 36.000000)">
                    <path d="M11.4188,18.4187 C14.9508,18.4187 17.0498,15.8307 17.0498,12.8927 C17.0498,9.7447 15.2308,7.4027 11.4548,7.4027 L8.0618,7.4027 L8.0618,18.4187 L11.4188,18.4187 Z M0.9968,1.2477 L11.4188,1.2477 C18.7628,1.2477 24.2188,5.4437 24.2188,12.8927 C24.2188,20.3417 18.7628,24.5737 11.4548,24.5737 L0.9968,24.5737 L0.9968,1.2477 Z" id="Fill-21"></path>
                    <polygon id="Fill-22" points="26.7498 1.2478 44.4458 1.2478 44.4458 7.1228 33.8138 7.1228 33.8138 9.8508 44.2008 9.8508 44.2008 15.7268 33.8138 15.7268 33.8138 18.6978 44.4458 18.6978 44.4458 24.5738 26.7498 24.5738"></polygon>
                    <polygon id="Fill-23" points="45.0868 1.2478 53.0938 1.2478 58.1308 16.9488 63.1648 1.2478 71.1758 1.2478 62.5728 24.5738 53.6888 24.5738"></polygon>
                    <polygon id="Fill-24" points="72.4452 1.2478 90.1422 1.2478 90.1422 7.1228 79.5092 7.1228 79.5092 9.8508 89.8982 9.8508 89.8982 15.7268 79.5092 15.7268 79.5092 18.6978 90.1422 18.6978 90.1422 24.5738 72.4452 24.5738"></polygon>
                    <polygon id="Fill-25" points="93.3006 1.2478 100.3646 1.2478 100.3646 18.4188 109.2126 18.4188 109.2126 24.5738 93.3006 24.5738"></polygon>
                    <path d="M122.8602,7.0881 C119.4662,7.0881 117.2652,9.6751 117.2652,12.9281 C117.2652,16.1801 119.4662,18.7691 122.8602,18.7691 C126.2522,18.7691 128.4562,16.1801 128.4562,12.9281 C128.4562,9.6751 126.2522,7.0881 122.8602,7.0881 M122.8602,0.8631 C130.0652,0.8631 135.6232,5.7581 135.6232,12.9281 C135.6232,20.0971 130.0652,24.9931 122.8602,24.9931 C115.6562,24.9931 110.0952,20.0971 110.0952,12.9281 C110.0952,5.7581 115.6562,0.8631 122.8602,0.8631" id="Fill-26"></path>
                    <path d="M149.6961,7.1223 L145.2191,7.1223 L145.2191,11.2143 L149.6961,11.2143 C150.8851,11.2143 151.8291,10.4103 151.8291,9.1863 C151.8291,7.9273 150.8851,7.1223 149.6961,7.1223 L149.6961,7.1223 Z M138.1551,1.2473 L150.6041,1.2473 C156.0591,1.2473 158.9991,4.8843 158.9991,9.2563 C158.9991,13.5923 156.0591,17.0903 150.6041,17.0903 L145.2191,17.0903 L145.2191,24.5733 L138.1551,24.5733 L138.1551,1.2473 Z" id="Fill-27"></path>
                    <polygon id="Fill-28" points="161.3163 1.2478 179.0133 1.2478 179.0133 7.1228 168.3803 7.1228 168.3803 9.8508 178.7683 9.8508 178.7683 15.7268 168.3803 15.7268 168.3803 18.6978 179.0133 18.6978 179.0133 24.5738 161.3163 24.5738"></polygon>
                    <path d="M193.5389,7.1223 L189.2359,7.1223 L189.2359,11.2143 L193.5389,11.2143 C194.7259,11.2143 195.8459,10.4453 195.8459,9.1513 C195.8459,7.8933 194.7259,7.1223 193.5389,7.1223 L193.5389,7.1223 Z M191.7909,17.0903 L189.2359,17.0903 L189.2359,24.5733 L182.1719,24.5733 L182.1719,1.2473 L194.6209,1.2473 C200.0769,1.2473 203.0159,4.8843 203.0159,9.2563 C203.0159,13.2773 200.6719,15.4113 198.8179,16.3203 L203.0499,24.5733 L195.0059,24.5733 L191.7909,17.0903 Z" id="Fill-29"></path>
                </g>
                <g id="Group-2">
                    <polygon id="Fill-4" points="6.9984 7.2463 0.7384 7.2463 0.7384 1.0913 20.2884 1.0913 20.2884 7.2463 14.0614 7.2463 14.0614 24.4173 6.9984 24.4173"></polygon>
                    <path d="M34.1805,6.966 L29.8795,6.966 L29.8795,11.058 L34.1805,11.058 C35.3695,11.058 36.4895,10.289 36.4895,8.995 C36.4895,7.736 35.3695,6.966 34.1805,6.966 L34.1805,6.966 Z M32.4325,16.934 L29.8795,16.934 L29.8795,24.417 L22.8155,24.417 L22.8155,1.091 L35.2655,1.091 C40.7205,1.091 43.6575,4.728 43.6575,9.1 C43.6575,13.121 41.3155,15.255 39.4615,16.163 L43.6945,24.417 L35.6505,24.417 L32.4325,16.934 Z" id="Fill-6"></path>
                    <path d="M58.0457,6.9319 C54.6517,6.9319 52.4507,9.5189 52.4507,12.7719 C52.4507,16.0239 54.6517,18.6129 58.0457,18.6129 C61.4377,18.6129 63.6417,16.0239 63.6417,12.7719 C63.6417,9.5189 61.4377,6.9319 58.0457,6.9319 M58.0457,0.7069 C65.2497,0.7069 70.8087,5.6019 70.8087,12.7719 C70.8087,19.9409 65.2497,24.8369 58.0457,24.8369 C50.8417,24.8369 45.2797,19.9409 45.2797,12.7719 C45.2797,5.6019 50.8417,0.7069 58.0457,0.7069" id="Fill-8"></path>
                    <polygon id="Fill-10" points="80.4081 11.8977 80.4081 24.4177 73.3431 24.4177 73.3431 1.0917 80.6181 1.0917 88.7311 12.8417 88.7311 1.0917 95.7961 1.0917 95.7961 24.4177 89.0101 24.4177"></polygon>
                    <path d="M110.0077,18.2619 C113.5387,18.2619 115.6367,15.6739 115.6367,12.7369 C115.6367,9.5899 113.8207,7.2459 110.0417,7.2459 L106.6507,7.2459 L106.6507,18.2619 L110.0077,18.2619 Z M99.5857,1.0919 L110.0077,1.0919 C117.3517,1.0919 122.8077,5.2869 122.8077,12.7369 C122.8077,20.1859 117.3517,24.4169 110.0417,24.4169 L99.5857,24.4169 L99.5857,1.0919 Z" id="Fill-12"></path>
                    <polygon id="Fill-14" points="140.7606 15.5002 132.4036 15.5002 132.4036 24.4172 125.3386 24.4172 125.3386 1.0912 132.4036 1.0912 132.4036 9.3452 140.7606 9.3452 140.7606 1.0912 147.8246 1.0912 147.8246 24.4172 140.7606 24.4172"></polygon>
                    <polygon id="Fill-16" points="151.6151 1.0915 169.3121 1.0915 169.3121 6.9665 158.6801 6.9665 158.6801 9.6945 169.0681 9.6945 169.0681 15.5695 158.6801 15.5695 158.6801 18.5425 169.3121 18.5425 169.3121 24.4175 151.6151 24.4175"></polygon>
                    <polygon id="Fill-18" points="172.471 24.4175 179.535 24.4175 179.535 1.0915 172.471 1.0915"></polygon>
                    <polygon id="Fill-20" points="203.95 9.6941 198.739 24.4171 195.593 24.4171 190.382 9.6941 190.382 24.4171 183.317 24.4171 183.317 1.0911 193.075 1.0911 197.167 12.9811 201.257 1.0911 211.014 1.0911 211.014 24.4171 203.95 24.4171"></polygon>
                </g>
                <g id="Group-5" transform="translate(0.000000, 73.000000)">
                    <path d="M0.7381,12.0847 C0.7381,4.8807 6.2641,0.0197 13.3981,0.0197 C19.6931,0.0197 22.7711,3.5867 24.1691,6.8037 L18.0841,9.6357 C17.4901,7.8177 15.6711,6.2447 13.3981,6.2447 C10.1801,6.2447 7.9071,8.8317 7.9071,12.0847 C7.9071,15.3367 10.1801,17.9247 13.3981,17.9247 C15.6711,17.9247 17.4901,16.3507 18.0841,14.5327 L24.1691,17.3297 C22.8051,20.4417 19.6931,24.1497 13.3981,24.1497 C6.2641,24.1497 0.7381,19.2537 0.7381,12.0847" id="Fill-30"></path>
                    <path d="M37.8895,6.2444 C34.4985,6.2444 32.2945,8.8314 32.2945,12.0844 C32.2945,15.3364 34.4985,17.9254 37.8895,17.9254 C41.2835,17.9254 43.4865,15.3364 43.4865,12.0844 C43.4865,8.8314 41.2835,6.2444 37.8895,6.2444 M37.8895,0.0194 C45.0955,0.0194 50.6545,4.9144 50.6545,12.0844 C50.6545,19.2534 45.0955,24.1494 37.8895,24.1494 C30.6875,24.1494 25.1255,19.2534 25.1255,12.0844 C25.1255,4.9144 30.6875,0.0194 37.8895,0.0194" id="Fill-31"></path>
                    <polygon id="Fill-32" points="60.2528 11.2107 60.2528 23.7297 53.1888 23.7297 53.1888 0.4047 60.4638 0.4047 68.5758 12.1547 68.5758 0.4047 75.6408 0.4047 75.6408 23.7297 68.8558 23.7297"></polygon>
                    <polygon id="Fill-33" points="79.4305 0.4045 97.1275 0.4045 97.1275 6.2785 86.4955 6.2785 86.4955 9.0065 96.8835 9.0065 96.8835 14.8825 86.4955 14.8825 86.4955 23.7295 79.4305 23.7295"></polygon>
                    <polygon id="Fill-34" points="100.1434 0.4045 117.8404 0.4045 117.8404 6.2785 107.2084 6.2785 107.2084 9.0065 117.5964 9.0065 117.5964 14.8825 107.2084 14.8825 107.2084 17.8555 117.8404 17.8555 117.8404 23.7295 100.1434 23.7295"></polygon>
                    <path d="M132.3661,6.2785 L128.0631,6.2785 L128.0631,10.3705 L132.3661,10.3705 C133.5531,10.3705 134.6731,9.6015 134.6731,8.3075 C134.6731,7.0495 133.5531,6.2785 132.3661,6.2785 L132.3661,6.2785 Z M130.6181,16.2465 L128.0631,16.2465 L128.0631,23.7295 L120.9991,23.7295 L120.9991,0.4045 L133.4481,0.4045 C138.9041,0.4045 141.8431,4.0405 141.8431,8.4125 C141.8431,12.4335 139.4991,14.5685 137.6451,15.4765 L141.8771,23.7295 L133.8331,23.7295 L130.6181,16.2465 Z" id="Fill-35"></path>
                    <polygon id="Fill-36" points="144.7215 0.4045 162.4155 0.4045 162.4155 6.2785 151.7855 6.2785 151.7855 9.0065 162.1735 9.0065 162.1735 14.8825 151.7855 14.8825 151.7855 17.8555 162.4155 17.8555 162.4155 23.7295 144.7215 23.7295"></polygon>
                    <polygon id="Fill-37" points="172.6414 11.2107 172.6414 23.7297 165.5774 23.7297 165.5774 0.4047 172.8524 0.4047 180.9644 12.1547 180.9644 0.4047 188.0294 0.4047 188.0294 23.7297 181.2444 23.7297"></polygon>
                    <path d="M190.5614,12.0847 C190.5614,4.8807 196.0844,0.0197 203.2204,0.0197 C209.5144,0.0197 212.5924,3.5867 213.9904,6.8037 L207.9084,9.6357 C207.3134,7.8177 205.4934,6.2447 203.2204,6.2447 C200.0034,6.2447 197.7314,8.8317 197.7314,12.0847 C197.7314,15.3367 200.0034,17.9247 203.2204,17.9247 C205.4934,17.9247 207.3134,16.3507 207.9084,14.5327 L213.9904,17.3297 C212.6284,20.4417 209.5144,24.1497 203.2204,24.1497 C196.0844,24.1497 190.5614,19.2537 190.5614,12.0847" id="Fill-38"></path>
                    <polygon id="Fill-39" points="216.2088 0.4045 233.9058 0.4045 233.9058 6.2785 223.2728 6.2785 223.2728 9.0065 233.6608 9.0065 233.6608 14.8825 223.2728 14.8825 223.2728 17.8555 233.9058 17.8555 233.9058 23.7295 216.2088 23.7295"></polygon>
                </g>
            </g>
        </g>
    </g>
</svg>
