<svg id="TDC-logo" viewBox="0 0 226 98" version="1.1" xmlns="http://www.w3.org/2000/svg" >
    <g>
        <g transform="translate(-100.000000, -205.000000)">
            <path d="M316.256,277.915 L313.487,279.924 L313.402,273.456 L316.256,277.915 Z M318.659,278.542 L321.921,276.177 L320.267,281.057 L318.659,278.542 Z M317.622,276.923 L314.574,272.165 L321.637,274.011 L317.622,276.923 Z M317.291,279.536 L319.516,283.011 L315.188,289.177 L313.637,282.186 L317.291,279.536 Z M280.484,230.128 L278.271,232.376 L278.508,231.212 L280.484,230.128 Z M276.151,234.331 L273.961,233.707 L276.568,232.278 L276.151,234.331 Z M273.489,269.04 L274.988,270.127 L275.013,270.209 L275.632,271.892 L273.489,269.04 Z M273.565,290.006 L272.664,288.557 L279.066,279.651 L282.315,284.735 L273.565,290.006 Z M268.799,295.116 L273.13,292.503 L277.098,298.894 L268.799,295.116 Z M270.038,288.909 L266.616,293.67 L260.384,286.609 L270.038,288.909 Z M270.137,292.068 L271.596,290.035 L272.118,290.872 L270.137,292.068 Z M268.777,265.961 L277.845,278.052 L271.101,287.432 L258.55,284.445 L255.41,272.413 L268.777,265.961 Z M253.413,249.063 L253.482,245.53 L254.639,247.186 L253.413,249.063 Z M253.728,242.939 L254.644,242.529 L254.71,244.342 L253.728,242.939 Z M256.571,228.064 L265.27,215.273 L270.49,232.648 L256.571,228.064 Z M266.733,214.267 L279.023,218.335 L271.935,231.589 L266.733,214.267 Z M272.902,235.15 L275.655,235.934 L274.437,246.364 L272.902,235.15 Z M273.279,254.903 L268.755,263.516 L253.401,252.167 L255.991,248.201 L273.279,254.903 Z M266.385,237.276 L256.44,245.44 L256.305,241.786 L266.385,237.276 Z M257.303,246.907 L271.023,235.649 L273.424,253.153 L257.303,246.907 Z M255.867,229.665 L255.878,229.605 L269.44,234.073 L256.243,239.973 L255.867,229.665 Z M270.327,264.664 L273.82,258.011 L274.756,267.877 L270.327,264.664 Z M278.292,223.783 L277.006,230.121 L274.033,231.752 L278.292,223.783 Z M281.462,208.948 L286.818,211.736 L284.186,213.764 L281.462,208.948 Z M283.18,216.905 L283.786,216.435 L284.026,216.862 L283.18,216.905 Z M280.533,210.621 L282.839,214.738 L281.037,216.139 L280.533,210.621 Z M284.62,225.929 L284.591,225.959 L278.944,229.057 L280.771,220.069 L284.62,225.929 Z M282.937,218.599 L284.62,218.513 L284.679,219.756 L282.937,218.599 Z M284.843,223.192 L283.319,220.875 L284.777,221.845 L284.843,223.192 Z M291.774,212.333 L290.151,211.481 L292.819,209.403 L291.774,212.333 Z M290.712,223.767 L292.148,222.738 L293.247,225.451 L290.712,223.767 Z M291.194,226.107 L288.206,225.569 L289.256,224.817 L291.194,226.107 Z M290.318,218.222 L291.498,221.132 L289.216,222.772 L286.426,220.919 L286.307,218.43 L290.318,218.222 Z M292.095,216.449 L292.712,214.724 L295.654,216.269 L292.095,216.449 Z M295.951,217.935 L292.91,220.121 L292.104,218.131 L295.951,217.935 Z M288.693,212.613 L291.203,213.931 L290.269,216.546 L285.904,216.769 L285.132,215.385 L288.693,212.613 Z M283.413,208.081 L291.569,208.081 L288.283,210.64 L283.413,208.081 Z M287.754,223.82 L286.604,224.646 L286.527,223.003 L287.754,223.82 Z M300.54,215.038 L299.197,215.763 L297.477,211.486 L300.54,215.038 Z M306.817,224.317 L301.928,234.033 L300.903,226.444 L306.817,224.317 Z M299.277,227.031 L300.142,233.426 L296.462,228.043 L299.277,227.031 Z M295.313,226.055 L293.556,221.725 L298.114,218.453 L298.616,222.187 L295.313,226.055 Z M302.276,214.104 L297.977,209.117 L306.315,211.926 L302.276,214.104 Z M306.566,222.62 L300.673,224.744 L300.395,222.703 L302.532,220.199 L306.567,222.62 L306.566,222.62 Z M300.462,216.99 L301.665,216.341 L302.643,217.475 L302.176,218.019 L300.462,216.99 Z M303.64,218.899 L303.755,218.764 L304.12,219.189 L303.64,218.899 Z M303.29,215.465 L305.267,214.4 L303.827,216.086 L303.29,215.465 Z M301.069,219.314 L300.093,220.458 L299.838,218.574 L301.069,219.314 Z M298.924,224.425 L299.046,225.33 L297.755,225.794 L298.924,224.425 Z M308.222,225.202 L310.773,236.121 L302.73,236.121 L308.222,225.202 Z M305.02,217.286 L307.921,213.891 L307.735,220.436 L305.02,217.286 Z M311.346,223.888 L318.728,224.497 L316.462,228.078 L311.346,223.888 Z M315.426,229.714 L312.187,234.822 L309.947,225.228 L315.426,229.714 Z M313.416,236.034 L316.738,230.79 L322.064,235.15 L313.416,236.034 Z M317.776,229.155 L319.778,225.99 L322.072,232.675 L317.776,229.155 Z M309.381,222.041 L309.606,214.053 L317.674,222.723 L309.381,222.041 Z M293.284,213.125 L294.709,209.128 L297.127,215.144 L293.284,213.125 Z M268.262,213.001 L278.629,208.359 L279.391,216.69 L268.262,213.001 Z M253.842,241.048 L254.464,237.563 L254.576,240.72 L253.842,241.048 Z M267.524,264.696 L255.152,270.666 L253.524,254.352 L267.524,264.696 Z M291.637,280.776 L283.881,284.054 L280.89,279.366 L291.637,280.776 Z M289.436,283.531 L294.579,281.354 L294.832,282.966 L289.436,283.531 Z M296.283,281.321 L300.243,282.402 L296.514,282.792 L296.283,281.321 Z M285.46,285.871 L295.13,284.862 L297.198,298.013 L285.46,285.871 Z M296.38,299.59 L280.576,299.99 L283.996,286.772 L296.38,299.59 Z M282.175,287.059 L279.105,298.931 L274.577,291.637 L282.175,287.059 Z M298.525,277.372 L301.095,273.704 L301.733,275.577 L298.525,277.372 Z M304.929,283.841 L313.21,291.214 L299.065,298.99 L296.817,284.688 L304.929,283.841 Z M305.309,280.869 L303.778,276.359 L310.166,272.793 L305.309,280.869 Z M297.448,279.896 L302.28,277.194 L303.787,281.63 L297.448,279.896 Z M303.229,274.741 L302.482,272.546 L308.112,272.014 L303.229,274.741 Z M307.104,283.522 L312.037,282.771 L313.458,289.18 L307.104,283.522 Z M306.822,281.632 L311.713,273.493 L311.808,280.867 L306.822,281.632 Z M286.208,227.397 L294.411,228.875 L300.564,237.843 C300.7,238.038 300.967,238.269 301.458,238.269 L311.683,238.269 L311.744,238.334 L324.461,237.05 C324.8,237.021 325.097,236.846 325.271,236.568 C325.447,236.294 325.489,235.96 325.386,235.644 L321.215,223.492 C321.167,223.349 321.087,223.213 320.982,223.103 L309.636,210.915 C309.508,210.771 309.344,210.666 309.176,210.616 L295.026,205.852 C294.931,205.818 294.852,205.809 294.711,205.797 L294.203,205.838 L294.181,205.937 L279.41,205.937 L279.168,205.898 L279.005,205.905 L265.014,212.133 C264.886,212.19 264.697,212.29 264.558,212.495 L254.071,227.898 C253.989,228.023 253.937,228.154 253.91,228.304 L251.38,242.513 L251.371,242.602 L251.176,252.642 L253.12,272.158 L253.143,272.337 L253.165,272.386 L256.546,285.356 C256.588,285.504 256.656,285.636 256.779,285.788 L265.796,295.987 C265.915,296.126 266.047,296.19 266.179,296.253 L278.858,301.716 L279.051,301.783 L279.194,301.783 C280.342,301.783 295.974,301.402 298.14,301.35 C298.235,301.429 298.376,301.507 298.565,301.507 L298.737,301.502 L315.422,292.397 C315.488,292.358 315.618,292.286 315.733,292.129 L321.534,283.877 C321.597,283.796 321.647,283.709 321.691,283.585 L324.988,273.855 C325.089,273.574 325.063,273.262 324.92,272.991 C324.783,272.742 324.541,272.549 324.241,272.462 L312.809,269.479 C312.73,269.456 312.646,269.442 312.49,269.442 L312.413,269.443 L301.172,270.504 C300.849,270.526 300.547,270.7 300.368,270.963 L294.728,279.011 L279.831,277.058 L277.094,269.601 L275.662,254.516 L277.841,235.891 L286.208,227.397 Z M228.649,295.81 L226.827,296.669 L229.673,293.359 L228.649,295.81 Z M243.661,272.372 L244.987,271.978 L244.484,274.356 L243.661,272.372 Z M243.41,270.721 L243.309,266.778 L245.395,270.151 L243.41,270.721 Z M238.416,279.249 L242.151,273.749 L243.756,277.639 L241.575,282.585 L238.416,279.249 Z M238.596,286.901 L234.669,291.853 L233.735,288.99 L238.596,286.901 Z M232.559,290.832 L233.37,293.32 L230.996,294.57 L232.559,290.832 Z M217.507,279.901 L228.708,283.798 L231.544,288.232 L222.977,298.203 L215.297,288.781 L217.507,279.901 Z M212.246,295.533 L219.277,298.964 L211.534,299.788 L212.246,295.533 Z M209.46,296.282 L210.377,295.744 L210.04,297.763 L209.46,296.282 Z M204.476,290.907 L200.121,297.936 L199.875,290.822 L204.476,290.907 Z M195.617,289.059 L200.795,284.445 L198.198,289.108 L195.617,289.059 Z M198.067,296.947 L194.962,290.725 L197.853,290.782 L198.067,296.947 Z M193.501,292.097 L197.642,300.399 L189.769,300.334 L193.501,292.097 Z M191.941,290.882 L188.413,298.656 L185.562,291.65 L191.941,290.882 Z M179.04,285.552 L176.368,290.578 L176.22,288.214 L179.04,285.552 Z M177.647,247.034 L176.567,251.135 L176.133,246.512 L177.647,247.034 Z M180.645,226.439 L176.998,223.748 L178.714,220.629 L180.645,226.439 Z M177.77,218.35 L177.053,219.654 L177.175,217.148 L177.77,218.35 Z M181.489,210.775 L181.293,210.7 L178.047,207.59 L185.527,207.605 L185.624,212.955 L181.489,210.775 Z M180.317,212.864 L180.947,212.661 L181.686,213.05 L180.317,212.864 Z M185.667,215.277 L179.405,217.314 L177.88,214.227 L185.667,215.277 Z M176.999,208.916 L179.346,211.164 L177.254,211.842 L176.999,208.916 Z M187.501,209.99 L189.72,213.565 L187.567,213.677 L187.501,209.99 Z M194.58,212.551 L199.031,208.318 L199.081,211.31 L194.58,212.551 Z M193.126,214.694 L199.441,212.951 L201.509,221.463 L193.126,214.694 Z M214.381,212.031 L207.908,214.383 L208.433,208.578 L214.381,212.031 Z M216.577,211.085 L211.051,207.877 L216.418,207.461 L220.107,208.681 L216.577,211.085 Z M220.269,210.605 L222.125,209.341 L224.278,209.99 L220.269,210.605 Z M221.904,225.007 L218.626,215.645 L228.411,211.35 L234.389,222.149 L221.904,225.007 Z M239.105,220.703 L236.185,221.661 L232.408,214.839 L239.105,220.703 Z M235.521,242.335 L244.333,233.649 L245.091,244.394 L235.521,242.335 Z M241.155,248.433 L244.614,247.104 L243.038,250.167 L241.155,248.433 Z M243.772,255.211 L243.808,254.858 L244.074,255.473 L243.772,255.211 Z M244.216,251.564 L245.209,249.641 L245.244,253.928 L244.216,251.564 Z M240.33,284.068 L234.564,286.55 L237.416,280.996 L240.33,284.068 Z M219.449,296.915 L212.827,293.682 L214.413,290.737 L219.449,296.915 Z M207.022,289.557 L205.49,281.693 L209.382,283.307 L210.314,292.015 L207.022,289.557 Z M209.777,294.006 L208.903,294.523 L208.262,292.876 L209.777,294.006 Z M205.947,292.248 L207.22,295.511 L202.042,298.553 L205.947,292.248 Z M200.38,289.151 L203.787,283.03 L204.995,289.235 L200.38,289.151 Z M201.825,281.274 L197.203,285.394 L199.599,281.329 L201.825,281.274 Z M184.125,280.98 L189.607,277.203 L191.936,287.487 L184.125,280.98 Z M183.948,292.752 L187.011,300.269 L177.61,300.269 L183.948,292.752 Z M183.167,290.348 L177.551,292.457 L182.137,283.836 L183.167,290.348 Z M177.011,258.112 L186.119,262.077 L178.693,271.646 L176.428,271.221 L177.011,258.112 Z M198.915,225.418 L194.455,217.93 L201.515,223.628 L198.915,225.418 Z M199.35,231.043 L199.481,227.071 L201.116,225.945 L199.35,231.043 Z M182.859,274.482 L182.036,278.746 L178.605,274.566 L179.437,273.574 L182.859,274.482 Z M180.735,272.148 L185.387,266.157 L183.335,272.865 L180.735,272.148 Z M188.123,275.891 L183.862,278.828 L184.569,274.924 L188.123,275.891 Z M184.425,251.114 L177.338,254.834 L179.16,247.919 L184.425,251.114 Z M189.155,242.205 L179.479,245.348 L178.78,240.253 L189.155,242.205 Z M191.921,230.714 L183.017,228.205 L183.009,228.197 L179.924,218.91 L190.942,215.33 L197.543,226.411 L191.921,230.714 Z M190.671,243.48 L186.199,249.946 L180.816,246.677 L190.671,243.48 Z M190.336,232.011 L184.443,236.924 L183.489,230.085 L190.336,232.011 Z M191.843,240.555 L185.479,238.254 L191.367,233.346 L191.843,240.555 Z M196.398,257.544 L188.347,260.529 L187.408,252.686 L196.398,257.544 Z M196.861,248.725 L188.177,250.05 L192.81,243.352 L196.861,248.725 Z M193.92,242.022 L197.358,238.966 L197.403,246.641 L193.92,242.022 Z M188.98,251.624 L197.424,250.335 L197.458,256.202 L188.98,251.624 Z M193.077,233.592 L197.033,237.002 L193.509,240.139 L193.077,233.592 Z M197.628,264.827 L189.961,261.721 L197.592,258.892 L197.628,264.827 Z M193.435,231.676 L197.747,228.373 L197.523,235.201 L193.435,231.676 Z M179.007,238.126 L181.815,232.051 L182.627,237.869 L179.007,238.126 Z M185.697,252.615 L186.607,260.192 L178.214,256.541 L185.697,252.615 Z M197.073,266.415 L189.938,274.656 L184.963,273.307 L188.177,262.811 L197.073,266.415 Z M191.425,289.255 L184.949,290.034 L183.825,282.92 L191.425,289.255 Z M198.138,278.936 L191.545,275.363 L197.718,268.22 L198.138,278.936 Z M202.814,279.331 L199.843,279.399 L199.594,273.266 L199.517,271.198 L202.814,279.331 Z M218.067,214.056 L217.676,212.942 L222.175,212.252 L218.067,214.056 Z M218.735,230.466 L220.956,231.57 L221.153,233.507 L218.735,230.466 Z M228.042,232.992 L222.77,230.331 L222.4,226.74 L233.611,224.168 L228.042,232.992 Z M239.217,229.607 L230.563,232.601 L235.754,224.376 L239.217,229.607 Z M238.552,249.429 L239.277,249.151 L239.984,249.804 L238.552,249.429 Z M239.35,251.376 L242.372,252.165 L242.206,253.853 L239.35,251.376 Z M238.305,253.016 L241.978,256.202 L241.586,260.218 L238.305,253.016 Z M228.806,267.221 L235.953,279.116 L229.536,282.053 L222.923,273.148 L228.806,267.221 Z M218.357,278.416 L221.77,274.426 L226.957,281.413 L218.357,278.416 Z M211.964,280.302 C212.086,280.286 212.206,280.246 212.371,280.153 L212.448,280.103 L213.155,280.024 L210.242,281.821 L210.19,281.825 L207.738,280.806 L211.964,280.302 Z M216.772,277.32 L216.201,277.988 L215.626,278.057 L216.772,277.32 Z M222.576,252.555 L222.112,258.795 L221.824,260.872 L220.745,272.427 L211.459,278.428 L204.827,279.221 L199.432,265.888 L199.27,237.152 L203.52,224.885 L214.714,228.507 L221.503,237.041 L222.576,252.555 Z M231.701,246.18 L233.344,244.613 L234.221,247.591 L231.701,246.18 Z M229.639,264.704 L226.64,257.54 L235.526,250.988 L240.899,262.779 L229.639,264.704 Z M223.733,262.784 L227.551,265.759 L222.973,270.376 L223.733,262.784 Z M226.486,237.909 L224.54,236.857 L226.996,235.849 L226.486,237.909 Z M229.945,245.194 L227.324,243.727 L227.893,240.579 L232.295,242.958 L229.945,245.194 Z M226.415,251.043 L230.225,247.415 L233.548,249.276 L226.415,251.043 Z M231.608,251.485 L225.876,255.711 L224.812,253.171 L231.608,251.485 Z M224.411,238.695 L226.109,239.613 L225.783,241.415 L224.411,238.695 Z M228.688,246.554 L225.363,249.72 L226.742,245.464 L228.688,246.554 Z M225.345,244.294 L224.083,248.196 L223.575,240.789 L225.345,244.294 Z M223.957,260.527 L224.067,259.43 L225.043,258.712 L226.693,262.656 L223.957,260.527 Z M223,232.597 L226.081,234.153 L223.275,235.304 L223,232.597 Z M228.235,238.852 L228.82,236.5 L231.386,240.555 L228.235,238.852 Z M231.806,266.036 L241.191,264.435 L241.398,270.471 L231.806,266.036 Z M236.476,248.43 L235.729,245.891 L237.898,247.885 L236.476,248.43 Z M229.669,234.689 L238.621,231.59 L233.679,241.026 L229.669,234.689 Z M217.956,227.936 L220.51,227.225 L220.724,229.311 L217.956,227.936 Z M215.695,226.574 L208.731,216.51 L216.896,216.179 L220.108,225.347 L215.695,226.574 Z M212.695,214.429 L215.991,213.234 L216.357,214.281 L212.695,214.429 Z M215.33,280.657 L213.855,286.595 L211.565,282.985 L215.33,280.657 Z M241.157,272.207 L237.387,277.767 L231.32,267.664 L241.157,272.207 Z M243.439,245.755 L239.902,247.115 L236.894,244.347 L243.439,245.755 Z M237.354,238.166 L241,231.203 L243.59,232.017 L237.354,238.166 Z M237.423,223.022 L240.116,222.139 L239.935,225.334 L237.423,223.022 Z M204.165,223.076 L207.003,217.398 L212.884,225.896 L204.165,223.076 Z M201.84,211.917 L206.712,208.832 L206.22,214.278 L201.84,211.917 Z M205.779,216.109 L203.198,221.247 L201.335,213.587 L205.779,216.109 Z M191.519,212.812 L188.258,207.559 L197.346,207.27 L191.519,212.812 Z M181.213,229.247 L178.299,235.611 L177.12,226.222 L181.213,229.247 Z M176.306,244.795 L177.182,242.804 L177.513,245.21 L176.306,244.795 Z M181.338,280.748 L176.77,285.056 L178.303,276.944 L181.338,280.748 Z M181.137,293.155 L176.705,298.413 L176.608,294.854 L181.137,293.155 Z M197.765,280.648 L193.861,287.275 L191.606,277.307 L197.765,280.648 Z M207.923,297.315 L208.963,299.98 L202.933,300.245 L207.923,297.315 Z M213.132,289.049 L212.134,290.904 L211.693,286.778 L213.132,289.049 Z M235.407,281.215 L232.578,286.718 L230.495,283.461 L235.407,281.215 Z M245.542,260.757 L245.542,267.89 L242.952,263.535 L245.542,260.757 Z M245.3,258.873 L243.29,260.967 L243.664,257.518 L245.3,258.873 Z M241.398,229.443 L241.415,229.143 L241.922,229.608 L241.398,229.443 Z M241.545,226.813 L241.627,225.381 L242.589,227.769 L241.545,226.813 Z M204.782,207.782 L200.992,210.182 L200.944,207.314 L204.782,207.782 Z M247.463,245.454 L246.417,231.484 C246.408,231.31 246.339,231.183 246.312,231.141 L242.024,220.528 C241.96,220.375 241.854,220.229 241.728,220.124 L229.496,209.416 C229.389,209.322 229.261,209.25 229.095,209.193 L222.427,207.178 L216.921,205.359 C216.806,205.315 216.681,205.292 216.493,205.292 C216.485,205.292 207.746,205.968 207.746,205.968 L200.147,205.034 L200.046,205 L186.669,205.475 L175.703,205.471 C175.294,205.471 175.043,205.648 174.902,205.802 C174.698,206.025 174.594,206.34 174.623,206.638 L175.2,213.211 L174.669,223.97 L174.669,224.103 L176.529,238.911 L173.931,244.819 C173.86,244.984 173.831,245.165 173.847,245.346 L174.91,256.622 L174.232,271.836 C174.219,272.106 174.309,272.371 174.488,272.58 L176.485,274.909 L174.054,287.759 L174.038,288.024 L174.424,294.233 L174.619,301.403 C174.636,301.972 175.112,302.419 175.703,302.419 L199.215,302.419 L210.453,301.994 L223.147,300.703 C223.271,300.693 223.376,300.67 223.517,300.613 L229.67,297.703 L234.827,294.991 C234.959,294.916 235.065,294.828 235.151,294.72 L242.808,285.073 L242.951,284.836 L245.858,278.243 L245.9,278.113 L247.49,271.195 L247.704,271.083 L247.702,258.339 L247.463,245.454 Z M161.102,209.192 L169.451,208.335 L162.63,219.548 L161.102,209.192 Z M144.383,294.369 L146.955,291.963 L147.155,297.42 L144.383,294.369 Z M141.686,294.255 L136.092,299.483 L134.518,286.363 L141.686,294.255 Z M126.845,299.913 L132.655,287.028 L134.251,300.334 L126.845,299.913 Z M130.679,286.724 L126.167,296.731 L125.784,290.639 L130.679,286.724 Z M135.9,208.307 L127.155,211.146 L124.343,208.002 L135.9,208.307 Z M137.534,220.027 L128.782,212.632 L140.462,208.84 L137.534,220.027 Z M140.114,221.713 L149.023,218.084 L147.252,226.061 L140.114,221.713 Z M129.514,252.229 L141.64,247.236 L147.061,259.468 L147.061,259.544 L138.743,265.413 L129.514,252.229 Z M139.733,266.772 L146.913,261.705 L146.05,273.268 L139.733,266.772 Z M143.93,287.099 L146.246,280.483 L146.781,288.301 L143.93,287.099 Z M143.861,292.228 L143.092,292.946 L142.794,292.618 L143.861,292.228 Z M145.501,289.583 L142.7,290.603 L143.372,288.684 L145.501,289.583 Z M141.593,287.937 L140.746,290.359 L136.652,285.849 L141.593,287.937 Z M145.278,277.414 L142.149,286.349 L135.075,283.358 L145.278,277.414 Z M130.653,272.907 L135.29,273.907 L133.181,280.411 L130.653,272.907 Z M136.124,235.696 L138.677,223.085 L146.228,227.683 L136.124,235.696 Z M126.883,277.596 L126.442,279.419 L126.576,277.247 L126.883,277.596 Z M133.336,237.605 L126.331,241.186 L125.86,229.773 L133.336,237.605 Z M133.072,243.424 L135.043,239.31 L139.817,244.819 L133.072,243.424 Z M128.285,249.568 L126.529,243.784 L130.639,244.635 L128.285,249.568 Z M127.152,252.092 L126.674,253.524 L126.573,249.688 L127.174,251.659 C127.148,251.755 127.138,251.853 127.144,251.952 L127.152,252.092 Z M127.027,258.366 L127.535,256.726 L127.701,259.017 L127.112,258.631 L127.027,258.366 Z M127.256,260.897 L127.653,261.134 L127.737,262.644 L127.256,260.897 Z M128.15,271.437 L126.733,272.746 L126.773,266.415 L128.15,271.437 Z M129.257,255.218 L135.22,263.733 L129.538,260.308 L129.257,255.218 Z M127.81,242.333 L133.004,239.671 L131.38,243.073 L127.81,242.333 Z M139.227,246.412 L129.776,250.302 L132.327,244.981 L139.227,246.412 Z M127.722,274.124 L127.365,275.595 L126.809,274.967 L127.722,274.124 Z M128.73,277.137 L129.28,274.866 L130.862,279.552 L128.73,277.137 Z M136.743,266.614 L130.086,270.186 L129.651,262.342 L136.743,266.614 Z M143.32,238.84 L136.832,237.282 L146.027,229.987 L143.32,238.84 Z M137.324,239.371 L142.759,240.675 L141.636,244.347 L137.324,239.371 Z M144.035,243.098 L144.638,241.127 L145.919,241.435 L144.035,243.098 Z M145.198,239.293 L146.78,234.12 L146.842,239.688 L145.198,239.293 Z M136.973,222.99 L134.362,235.894 L126.232,227.377 L136.973,222.99 Z M131.906,283.281 L126.125,287.904 L128.249,279.137 L131.906,283.281 Z M136.92,268.424 L135.857,272.068 L131.773,271.186 L136.92,268.424 Z M137.746,272.473 L138.943,268.376 L144.298,273.882 L137.746,272.473 Z M134.837,281.553 L137.185,274.313 L144.543,275.891 L134.837,281.553 Z M143.141,246.453 L146.882,243.152 L147.013,255.195 L143.141,246.453 Z M127.691,213.913 L136.512,221.364 L125.843,225.723 L127.691,213.913 Z M142.979,295.679 L146.24,299.274 L138.23,300.119 L142.979,295.679 Z M148.773,216.368 L139.493,220.146 L142.366,209.184 L148.773,216.368 Z M151.813,216.567 L159.284,210.097 L160.907,221.067 L151.813,216.567 Z M159.76,222.376 L158.733,222.724 L156.343,220.682 L159.76,222.376 Z M150.686,218.379 L156.533,223.373 L148.978,226.071 L150.686,218.379 Z M150.194,215.431 L144.073,208.568 L157.408,209.184 L150.194,215.431 Z M158.342,224.761 L160.549,226.667 L153.235,226.587 L158.342,224.761 Z M161.532,225.292 L160.081,224.039 L161.281,223.633 L161.532,225.292 Z M118.878,223.595 L120.672,221.518 L122.73,225.33 L118.878,223.595 Z M116.133,224.198 L114.572,226.007 L114.207,223.332 L116.133,224.198 Z M108.687,225.022 L110.897,226.689 L105.87,226.362 L108.687,225.022 Z M107.822,215.896 L111.898,221.617 L108.879,223.058 L102.688,218.386 L107.822,215.896 Z M106.834,214.505 L102.354,216.682 L103.162,209.349 L106.834,214.505 Z M109.365,215.15 L114.708,212.583 L112.801,219.976 L109.365,215.15 Z M108.374,213.835 L104.497,208.44 L113.688,211.309 L108.374,213.835 Z M112.88,226.08 L110.395,224.207 L112.486,223.201 L112.88,226.08 Z M125.381,212.884 L120.966,218.512 L118.665,214.246 L119.813,212.294 L125.381,212.884 Z M117.669,215.949 L119.816,219.928 L117.275,222.873 L114.367,221.565 L117.669,215.949 Z M118.911,210.608 L116.155,210.286 L109.01,208.081 L120.41,208.081 L118.911,210.608 Z M116.733,214.214 L115.486,216.332 L116.259,213.338 L116.733,214.214 Z M120.865,226.332 L116.189,226.712 L117.735,224.921 L120.865,226.332 Z M120.748,210.707 L122.238,208.174 L124.898,211.146 L120.748,210.707 Z M107.166,223.874 L103.078,225.825 L102.415,220.288 L107.166,223.874 Z M125.495,215.473 L124.109,224.334 L121.84,220.13 L125.495,215.473 Z M163.278,222.186 L170.189,210.825 L169.557,225.837 L163.278,222.186 Z M166.941,226.535 L163.67,226.566 L163.357,224.45 L166.941,226.535 Z M171.435,205.973 L171.353,205.975 L159.995,207.15 L141.864,206.383 L122.14,205.936 L102.346,205.936 C101.766,205.936 101.333,206.289 101.267,206.821 L100.01,218.195 L100,218.356 L101.075,227.345 C101.143,227.857 101.554,228.242 102.082,228.282 L113.933,229.052 L114.042,229.052 L123.627,228.268 L124.224,242.699 L124.65,258.991 L124.55,274.888 L123.594,290.314 L124.261,300.968 C124.296,301.494 124.716,301.882 125.283,301.906 L135.156,302.4 L135.201,302.487 L135.58,302.487 L148.454,301.168 C149.026,301.109 149.442,300.641 149.424,300.076 L149.034,289.447 L148.066,275.402 L149.229,259.742 L148.891,228.687 L162.748,228.834 L170.559,228.834 C171.144,228.834 171.62,228.383 171.643,227.808 L172.517,207.093 C172.53,206.783 172.412,206.492 172.167,206.253 C171.964,206.073 171.705,205.973 171.435,205.973 L171.435,205.973 Z" id="Fill-1"></path>
        </g>
    </g>
</svg>
