<svg viewBox="0 0 234 98"><g transform="translate(-366 -205)translate(366 205)"><g transform="translate(1 36)"><path d="M11.4 18.4C15 18.4 17 15.8 17 12.9 17 9.7 15.2 7.4 11.5 7.4L8.1 7.4 8.1 18.4 11.4 18.4ZM1 1.2L11.4 1.2C18.8 1.2 24.2 5.4 24.2 12.9 24.2 20.3 18.8 24.6 11.5 24.6L1 24.6 1 1.2Z"/><polygon points="26.7 1.2 44.4 1.2 44.4 7.1 33.8 7.1 33.8 9.9 44.2 9.9 44.2 15.7 33.8 15.7 33.8 18.7 44.4 18.7 44.4 24.6 26.7 24.6"/><polygon points="45.1 1.2 53.1 1.2 58.1 16.9 63.2 1.2 71.2 1.2 62.6 24.6 53.7 24.6"/><polygon points="72.4 1.2 90.1 1.2 90.1 7.1 79.5 7.1 79.5 9.9 89.9 9.9 89.9 15.7 79.5 15.7 79.5 18.7 90.1 18.7 90.1 24.6 72.4 24.6"/><polygon points="93.3 1.2 100.4 1.2 100.4 18.4 109.2 18.4 109.2 24.6 93.3 24.6"/><path d="M122.9 7.1C119.5 7.1 117.3 9.7 117.3 12.9 117.3 16.2 119.5 18.8 122.9 18.8 126.3 18.8 128.5 16.2 128.5 12.9 128.5 9.7 126.3 7.1 122.9 7.1M122.9 0.9C130.1 0.9 135.6 5.8 135.6 12.9 135.6 20.1 130.1 25 122.9 25 115.7 25 110.1 20.1 110.1 12.9 110.1 5.8 115.7 0.9 122.9 0.9"/><path d="M149.7 7.1L145.2 7.1 145.2 11.2 149.7 11.2C150.9 11.2 151.8 10.4 151.8 9.2 151.8 7.9 150.9 7.1 149.7 7.1L149.7 7.1ZM138.2 1.2L150.6 1.2C156.1 1.2 159 4.9 159 9.3 159 13.6 156.1 17.1 150.6 17.1L145.2 17.1 145.2 24.6 138.2 24.6 138.2 1.2Z"/><polygon points="161.3 1.2 179 1.2 179 7.1 168.4 7.1 168.4 9.9 178.8 9.9 178.8 15.7 168.4 15.7 168.4 18.7 179 18.7 179 24.6 161.3 24.6"/><path d="M193.5 7.1L189.2 7.1 189.2 11.2 193.5 11.2C194.7 11.2 195.8 10.4 195.8 9.2 195.8 7.9 194.7 7.1 193.5 7.1L193.5 7.1ZM191.8 17.1L189.2 17.1 189.2 24.6 182.2 24.6 182.2 1.2 194.6 1.2C200.1 1.2 203 4.9 203 9.3 203 13.3 200.7 15.4 198.8 16.3L203 24.6 195 24.6 191.8 17.1Z"/></g><polygon points="7 7.2 0.7 7.2 0.7 1.1 20.3 1.1 20.3 7.2 14.1 7.2 14.1 24.4 7 24.4"/><path d="M34.2 7L29.9 7 29.9 11.1 34.2 11.1C35.4 11.1 36.5 10.3 36.5 9 36.5 7.7 35.4 7 34.2 7L34.2 7ZM32.4 16.9L29.9 16.9 29.9 24.4 22.8 24.4 22.8 1.1 35.3 1.1C40.7 1.1 43.7 4.7 43.7 9.1 43.7 13.1 41.3 15.3 39.5 16.2L43.7 24.4 35.7 24.4 32.4 16.9Z"/><path d="M58 6.9C54.7 6.9 52.5 9.5 52.5 12.8 52.5 16 54.7 18.6 58 18.6 61.4 18.6 63.6 16 63.6 12.8 63.6 9.5 61.4 6.9 58 6.9M58 0.7C65.2 0.7 70.8 5.6 70.8 12.8 70.8 19.9 65.2 24.8 58 24.8 50.8 24.8 45.3 19.9 45.3 12.8 45.3 5.6 50.8 0.7 58 0.7"/><polygon points="80.4 11.9 80.4 24.4 73.3 24.4 73.3 1.1 80.6 1.1 88.7 12.8 88.7 1.1 95.8 1.1 95.8 24.4 89 24.4"/><path d="M110 18.3C113.5 18.3 115.6 15.7 115.6 12.7 115.6 9.6 113.8 7.2 110 7.2L106.7 7.2 106.7 18.3 110 18.3ZM99.6 1.1L110 1.1C117.4 1.1 122.8 5.3 122.8 12.7 122.8 20.2 117.4 24.4 110 24.4L99.6 24.4 99.6 1.1Z"/><polygon points="140.8 15.5 132.4 15.5 132.4 24.4 125.3 24.4 125.3 1.1 132.4 1.1 132.4 9.3 140.8 9.3 140.8 1.1 147.8 1.1 147.8 24.4 140.8 24.4"/><polygon points="151.6 1.1 169.3 1.1 169.3 7 158.7 7 158.7 9.7 169.1 9.7 169.1 15.6 158.7 15.6 158.7 18.5 169.3 18.5 169.3 24.4 151.6 24.4"/><polygon points="172.5 24.4 179.5 24.4 179.5 1.1 172.5 1.1"/><polygon points="204 9.7 198.7 24.4 195.6 24.4 190.4 9.7 190.4 24.4 183.3 24.4 183.3 1.1 193.1 1.1 197.2 13 201.3 1.1 211 1.1 211 24.4 204 24.4"/><g transform="translate(0 73)"><path d="M0.7 12.1C0.7 4.9 6.3 0 13.4 0 19.7 0 22.8 3.6 24.2 6.8L18.1 9.6C17.5 7.8 15.7 6.2 13.4 6.2 10.2 6.2 7.9 8.8 7.9 12.1 7.9 15.3 10.2 17.9 13.4 17.9 15.7 17.9 17.5 16.4 18.1 14.5L24.2 17.3C22.8 20.4 19.7 24.1 13.4 24.1 6.3 24.1 0.7 19.3 0.7 12.1"/><path d="M37.9 6.2C34.5 6.2 32.3 8.8 32.3 12.1 32.3 15.3 34.5 17.9 37.9 17.9 41.3 17.9 43.5 15.3 43.5 12.1 43.5 8.8 41.3 6.2 37.9 6.2M37.9 0C45.1 0 50.7 4.9 50.7 12.1 50.7 19.3 45.1 24.1 37.9 24.1 30.7 24.1 25.1 19.3 25.1 12.1 25.1 4.9 30.7 0 37.9 0"/><polygon points="60.3 11.2 60.3 23.7 53.2 23.7 53.2 0.4 60.5 0.4 68.6 12.2 68.6 0.4 75.6 0.4 75.6 23.7 68.9 23.7"/><polygon points="79.4 0.4 97.1 0.4 97.1 6.3 86.5 6.3 86.5 9 96.9 9 96.9 14.9 86.5 14.9 86.5 23.7 79.4 23.7"/><polygon points="100.1 0.4 117.8 0.4 117.8 6.3 107.2 6.3 107.2 9 117.6 9 117.6 14.9 107.2 14.9 107.2 17.9 117.8 17.9 117.8 23.7 100.1 23.7"/><path d="M132.4 6.3L128.1 6.3 128.1 10.4 132.4 10.4C133.6 10.4 134.7 9.6 134.7 8.3 134.7 7 133.6 6.3 132.4 6.3L132.4 6.3ZM130.6 16.2L128.1 16.2 128.1 23.7 121 23.7 121 0.4 133.4 0.4C138.9 0.4 141.8 4 141.8 8.4 141.8 12.4 139.5 14.6 137.6 15.5L141.9 23.7 133.8 23.7 130.6 16.2Z"/><polygon points="144.7 0.4 162.4 0.4 162.4 6.3 151.8 6.3 151.8 9 162.2 9 162.2 14.9 151.8 14.9 151.8 17.9 162.4 17.9 162.4 23.7 144.7 23.7"/><polygon points="172.6 11.2 172.6 23.7 165.6 23.7 165.6 0.4 172.9 0.4 181 12.2 181 0.4 188 0.4 188 23.7 181.2 23.7"/><path d="M190.6 12.1C190.6 4.9 196.1 0 203.2 0 209.5 0 212.6 3.6 214 6.8L207.9 9.6C207.3 7.8 205.5 6.2 203.2 6.2 200 6.2 197.7 8.8 197.7 12.1 197.7 15.3 200 17.9 203.2 17.9 205.5 17.9 207.3 16.4 207.9 14.5L214 17.3C212.6 20.4 209.5 24.1 203.2 24.1 196.1 24.1 190.6 19.3 190.6 12.1"/><polygon points="216.2 0.4 233.9 0.4 233.9 6.3 223.3 6.3 223.3 9 233.7 9 233.7 14.9 223.3 14.9 223.3 17.9 233.9 17.9 233.9 23.7 216.2 23.7"/></g></g></svg>