<svg id="icon_flickr" viewBox="0 0 53 16">
    <g transform="translate(-1358.000000, -1845.000000)" fill-rule="nonzero">
        <g transform="translate(1358.000000, 1845.000000)">
            <path d="M2.10441303,7.57577281 L0,7.57577281 L0,4.98488481 L2.1638938,4.98488481 L2.1638938,4.32712159 C2.1638938,1.13999516 3.61309863,0.029585386 6.47175227,0.029585386 C7.24602419,0.029585386 7.84154722,0.152941538 8.2980774,0.235315241 L8.07977687,2.78491419 C7.78206646,2.68210036 7.48425384,2.62037119 6.94831377,2.62037119 C6.0351512,2.62037119 5.67775562,3.2783388 5.67775562,4.32712159 L5.67775562,4.98498701 L8.21876972,4.98498701 L8.21876972,7.57587501 L5.67775562,7.57587501 L5.67775562,15.6974519 L2.10441303,15.6974519 L2.10441303,7.57577281 Z"></path>
            <rect x="10.0846468" y="0.276399891" width="3.57334269" height="15.4209509"></rect>
            <rect x="16.7151163" y="0.523112196" width="3.57344479" height="2.71414185"></rect>
            <rect x="16.7151163" y="4.98488481" width="3.57344479" height="10.7123627"></rect>
            <path d="M31.028518,8.04845069 C30.373412,7.63750198 29.718306,7.45231445 28.8646242,7.45231445 C27.3161826,7.45231445 26.1250343,8.56262202 26.1250343,10.4132709 C26.1250343,12.1199191 27.5147584,13.2300223 29.0632,13.2300223 C29.877228,13.2300223 30.691256,13.0451414 31.2866768,12.7160554 L31.3660867,15.471282 C30.4726488,15.7799278 29.4007687,15.9443686 28.4478501,15.9443686 C25.0331229,15.9443686 22.432628,13.8881943 22.432628,10.3516439 C22.432628,6.79444904 25.0331229,4.7383769 28.4478501,4.7383769 C29.5199346,4.7383769 30.4726488,4.92346223 31.2866768,5.33461534 L31.028518,8.04845069 Z"></path>
            <polygon points="32.8551498 0.276399891 36.4283902 0.276399891 36.4283902 9.48804867 36.4681462 9.48804867 39.4458636 4.98488481 43.3566726 4.98488481 39.7635031 9.89899737 43.6544852 15.6973497 39.3266976 15.6973497 36.4681462 10.3926264 36.4283902 10.3926264 36.4283902 15.6973497 32.8551498 15.6973497"></polygon>
            <path d="M52.3693368,7.94563686 C51.9722873,7.82248511 51.5751357,7.82248511 51.1584638,7.82248511 C49.4909584,7.82248511 48.5577645,9.07658896 48.5577645,11.1739501 L48.5577645,15.6973497 L44.9845241,15.6973497 L44.9845241,4.98488481 L48.240125,4.98488481 L48.240125,6.95878764 L48.279881,6.95878764 C48.8951288,5.60166557 49.7885666,4.7381725 51.3371105,4.7381725 C51.7536802,4.7381725 52.1904857,4.79979948 52.5481879,4.86142645 L52.3693368,7.94563686 Z"></path>
        </g>
    </g>
</svg>
