<svg viewBox="0 0 53 16"><g transform="translate(-1358 -1845)translate(1358 1845)"><path d="M2.1 7.6L0 7.6 0 5 2.2 5 2.2 4.3C2.2 1.1 3.6 0 6.5 0 7.2 0 7.8 0.2 8.3 0.2L8.1 2.8C7.8 2.7 7.5 2.6 6.9 2.6 6 2.6 5.7 3.3 5.7 4.3L5.7 5 8.2 5 8.2 7.6 5.7 7.6 5.7 15.7 2.1 15.7 2.1 7.6Z"/><rect x="10.1" y="0.3" width="3.6" height="15.4"/><rect x="16.7" y="0.5" width="3.6" height="2.7"/><rect x="16.7" y="5" width="3.6" height="10.7"/><path d="M31 8C30.4 7.6 29.7 7.5 28.9 7.5 27.3 7.5 26.1 8.6 26.1 10.4 26.1 12.1 27.5 13.2 29.1 13.2 29.9 13.2 30.7 13 31.3 12.7L31.4 15.5C30.5 15.8 29.4 15.9 28.4 15.9 25 15.9 22.4 13.9 22.4 10.4 22.4 6.8 25 4.7 28.4 4.7 29.5 4.7 30.5 4.9 31.3 5.3L31 8Z"/><polygon points="32.9 0.3 36.4 0.3 36.4 9.5 36.5 9.5 39.4 5 43.4 5 39.8 9.9 43.7 15.7 39.3 15.7 36.5 10.4 36.4 10.4 36.4 15.7 32.9 15.7"/><path d="M52.4 7.9C52 7.8 51.6 7.8 51.2 7.8 49.5 7.8 48.6 9.1 48.6 11.2L48.6 15.7 45 15.7 45 5 48.2 5 48.2 7 48.3 7C48.9 5.6 49.8 4.7 51.3 4.7 51.8 4.7 52.2 4.8 52.5 4.9L52.4 7.9Z"/></g></svg>