<svg id="icon_practicalities" viewBox="0 0 45 35">
    <g transform="translate(-304.000000, -1907.000000)">
        <g transform="translate(304.000000, 1907.000000)">
            <g transform="translate(25.000000, 0.000000)">
                <g transform="translate(10.000000, 5.000000) rotate(90.000000) translate(-10.000000, -5.000000) translate(5.000000, -5.000000)">
                    <path d="M7.64975,16.0932 L9.43725,14.3057 C6.96975,11.8382 6.96975,7.8332 9.43725,5.3632 L7.64975,3.5757 C4.18975,7.0357 4.18975,12.6332 7.64975,16.0932 M4.07475,19.6707 L5.86225,17.8807 C1.41725,13.4382 1.41725,6.2307 5.86225,1.7882 L4.07475,0.0007 C-1.36275,5.4357 -1.35275,14.2432 4.07475,19.6707"></path>
                </g>
                <g transform="translate(0.000000, 15.000000)">
                    <path d="M6.99999958,9.74999942 C6.30999908,9.74999942 5.74999966,10.3099998 5.74999966,10.9999993 C5.74999966,11.6899988 6.31000003,12.2499993 6.99999958,12.2499993 C7.68999912,12.2499993 8.24999951,11.6899988 8.24999951,10.9999993 C8.24999951,10.3099998 7.68999912,9.74999942 6.99999958,9.74999942 Z M12.9999992,9.74999942 C12.3099987,9.74999942 11.7499993,10.3099998 11.7499993,10.9999993 C11.7499993,11.6899988 12.3099997,12.2499993 12.9999992,12.2499993 C13.6899987,12.2499993 14.2499991,11.6899988 14.2499991,10.9999993 C14.2499991,10.3099998 13.6899987,9.74999942 12.9999992,9.74999942 Z M9.9999994,0 C4.47999974,0 0,4.47999974 0,9.9999994 C0,15.5199995 4.47999974,19.9999988 9.9999994,19.9999988 C15.5199995,19.9999988 19.9999988,15.5199995 19.9999988,9.9999994 C19.9999988,4.47999927 15.5199995,0 9.9999994,0 Z M9.9999994,17.9999989 C5.58999981,17.9999989 1.99999988,14.4099989 1.99999988,9.9999994 C1.99999988,9.70999942 2.01999986,9.41999943 2.05000007,9.13999975 C4.41000006,8.08999961 6.2800003,6.15999947 7.25999978,3.77000022 C9.06999906,6.32999954 12.0499994,7.99999952 15.4199991,7.99999952 C16.1999997,7.99999952 16.9499997,7.90999937 17.6699989,7.73999931 C17.879998,8.44999929 17.9999989,9.20999945 17.9999989,9.9999994 C17.9999989,14.4099989 14.4099989,17.9999989 9.9999994,17.9999989 Z"></path>
                </g>
            </g>
            <path d="M7.24999974,22.2399992 L7.24999974,18.4999997 C7.24999974,17.1199997 8.36999948,15.9999999 9.74999959,15.9999999 C11.1299996,15.9999999 12.2499994,17.1199997 12.2499994,18.4999997 L12.2499994,22.2399992 C13.4599994,21.4299989 14.2499993,20.0599991 14.2499993,18.4999997 C14.2499993,16.0100001 12.2399991,14 9.74999959,14 C7.25999996,14 5.24999986,16.0100001 5.24999986,18.4999997 C5.24999986,20.0599991 6.03999978,21.4299999 7.24999974,22.2399992 Z M17.0899993,26.869999 L12.5499995,24.609999 C12.3799995,24.5399993 12.1999992,24.4999994 12.0099997,24.4999994 L11.2499995,24.4999994 L11.2499995,18.4999997 C11.2499995,17.6699998 10.5799994,16.9999998 9.74999959,16.9999998 C8.91999964,16.9999998 8.24999968,17.6699998 8.24999968,18.4999997 L8.24999968,29.2399988 L4.81999958,28.5199995 C4.73999967,28.5099993 4.66999949,28.4899988 4.57999983,28.4899988 C4.2699999,28.4899988 3.98999971,28.619998 3.78999991,28.8199987 L3,29.619998 L7.94000023,34.5599982 C8.21000068,34.8299987 8.58999976,34.9999987 8.99999964,34.9999987 L15.7900001,34.9999987 C16.5400001,34.9999987 17.12,34.4499995 17.2300005,33.7199981 L17.9800005,28.4499979 C17.9900007,28.3799982 18.000001,28.3099985 18.000001,28.2499971 C18.000001,27.6299964 17.6200018,27.0899974 17.0900012,26.8699971 L17.0899993,26.869999 Z" transform="translate(10.500000, 24.499999) rotate(90.000000) translate(-10.500000, -24.499999)"></path>
        </g>
    </g>
</svg>
