<svg id="icon_cfp" viewBox="0 0 46 36">
    <g transform="translate(-303.000000, -1172.000000)">
        <g transform="translate(300.000000, 1172.000000)">
            <g transform="translate(0.000000, 15.000000)">
                <path d="M6.61999948,10.7899993 C8.05999898,13.619999 10.3799995,15.9299993 13.2099992,17.38 L15.4099989,15.1800003 C15.6799994,14.9099999 16.0799989,14.8200007 16.4299993,14.9400005 C17.55,15.3100004 18.7599991,15.5100002 19.9999988,15.5100002 C20.549998,15.5100002 20.9999987,15.9599999 20.9999987,16.5100011 L20.9999987,19.9999988 C20.9999987,20.549998 20.549998,20.9999987 19.9999988,20.9999987 C10.609999,20.9999987 2.99999982,13.3899985 2.99999982,3.99999976 C2.99999982,3.44999983 3.44999983,2.99999982 3.99999976,2.99999982 L7.49999955,2.99999982 C8.04999971,2.99999982 8.49999949,3.44999983 8.49999949,3.99999976 C8.49999949,5.24999968 8.69999928,6.44999941 9.06999915,7.56999924 C9.1799988,7.91999911 9.09999887,8.30999896 8.81999916,8.58999963 L6.61999948,10.7899993 Z"></path>
            </g>
            <g transform="translate(29.000000, 0.000000)">
                <g transform="translate(0.000000, 15.000000)">
                    <path d="M6.99999958,9.74999942 C6.30999908,9.74999942 5.74999966,10.3099998 5.74999966,10.9999993 C5.74999966,11.6899988 6.31000003,12.2499993 6.99999958,12.2499993 C7.68999912,12.2499993 8.24999951,11.6899988 8.24999951,10.9999993 C8.24999951,10.3099998 7.68999912,9.74999942 6.99999958,9.74999942 Z M12.9999992,9.74999942 C12.3099987,9.74999942 11.7499993,10.3099998 11.7499993,10.9999993 C11.7499993,11.6899988 12.3099997,12.2499993 12.9999992,12.2499993 C13.6899987,12.2499993 14.2499991,11.6899988 14.2499991,10.9999993 C14.2499991,10.3099998 13.6899987,9.74999942 12.9999992,9.74999942 Z M9.9999994,0 C4.47999974,0 0,4.47999974 0,9.9999994 C0,15.5199995 4.47999974,19.9999988 9.9999994,19.9999988 C15.5199995,19.9999988 19.9999988,15.5199995 19.9999988,9.9999994 C19.9999988,4.47999927 15.5199995,0 9.9999994,0 Z M9.9999994,17.9999989 C5.58999981,17.9999989 1.99999988,14.4099989 1.99999988,9.9999994 C1.99999988,9.70999942 2.01999986,9.41999943 2.05000007,9.13999975 C4.41000006,8.08999961 6.2800003,6.15999947 7.25999978,3.77000022 C9.06999906,6.32999954 12.0499994,7.99999952 15.4199991,7.99999952 C16.1999997,7.99999952 16.9499997,7.90999937 17.6699989,7.73999931 C17.879998,8.44999929 17.9999989,9.20999945 17.9999989,9.9999994 C17.9999989,14.4099989 14.4099989,17.9999989 9.9999994,17.9999989 Z"></path>
                </g>
                <g transform="translate(10.000000, 5.000000) rotate(90.000000) translate(-10.000000, -5.000000) translate(5.000000, -5.000000)">
                    <path d="M7.64975,16.0932 L9.43725,14.3057 C6.96975,11.8382 6.96975,7.8332 9.43725,5.3632 L7.64975,3.5757 C4.18975,7.0357 4.18975,12.6332 7.64975,16.0932 M4.07475,19.6707 L5.86225,17.8807 C1.41725,13.4382 1.41725,6.2307 5.86225,1.7882 L4.07475,0.0007 C-1.36275,5.4357 -1.35275,14.2432 4.07475,19.6707"></path>
                </g>
            </g>
        </g>
    </g>
</svg>
