<svg id="icon_2017" viewBox="0 0 47 34">
    <g transform="translate(-302.000000, -677.000000)">
        <g transform="translate(302.000000, 677.000000)">
            <g transform="translate(27.000000, 0.000000)">
                <g transform="translate(10.000000, 5.000000) rotate(90.000000) translate(-10.000000, -5.000000) translate(5.000000, -5.000000)">
                    <path d="M7.64975,16.0932 L9.43725,14.3057 C6.96975,11.8382 6.96975,7.8332 9.43725,5.3632 L7.64975,3.5757 C4.18975,7.0357 4.18975,12.6332 7.64975,16.0932 M4.07475,19.6707 L5.86225,17.8807 C1.41725,13.4382 1.41725,6.2307 5.86225,1.7882 L4.07475,0.0007 C-1.36275,5.4357 -1.35275,14.2432 4.07475,19.6707"></path>
                </g>
                <g transform="translate(0.000000, 14.000000)">
                    <path d="M6.99999958,9.74999942 C6.30999908,9.74999942 5.74999966,10.3099998 5.74999966,10.9999993 C5.74999966,11.6899988 6.31000003,12.2499993 6.99999958,12.2499993 C7.68999912,12.2499993 8.24999951,11.6899988 8.24999951,10.9999993 C8.24999951,10.3099998 7.68999912,9.74999942 6.99999958,9.74999942 Z M12.9999992,9.74999942 C12.3099987,9.74999942 11.7499993,10.3099998 11.7499993,10.9999993 C11.7499993,11.6899988 12.3099997,12.2499993 12.9999992,12.2499993 C13.6899987,12.2499993 14.2499991,11.6899988 14.2499991,10.9999993 C14.2499991,10.3099998 13.6899987,9.74999942 12.9999992,9.74999942 Z M9.9999994,0 C4.47999974,0 0,4.47999974 0,9.9999994 C0,15.5199995 4.47999974,19.9999988 9.9999994,19.9999988 C15.5199995,19.9999988 19.9999988,15.5199995 19.9999988,9.9999994 C19.9999988,4.47999927 15.5199995,0 9.9999994,0 Z M9.9999994,17.9999989 C5.58999981,17.9999989 1.99999988,14.4099989 1.99999988,9.9999994 C1.99999988,9.70999942 2.01999986,9.41999943 2.05000007,9.13999975 C4.41000006,8.08999961 6.2800003,6.15999947 7.25999978,3.77000022 C9.06999906,6.32999954 12.0499994,7.99999952 15.4199991,7.99999952 C16.1999997,7.99999952 16.9499997,7.90999937 17.6699989,7.73999931 C17.879998,8.44999929 17.9999989,9.20999945 17.9999989,9.9999994 C17.9999989,14.4099989 14.4099989,17.9999989 9.9999994,17.9999989 Z"></path>
                </g>
            </g>
            <path d="M9.9899991,14 C4.46999999,14 0,18.4799997 0,23.9999994 C0,29.5199995 4.46999999,33.9999988 9.9899991,33.9999988 C15.5199995,33.9999988 19.9999988,29.5199995 19.9999988,23.9999994 C19.9999988,18.4799993 15.5199995,14 9.9899991,14 Z M9.9999994,31.9999989 C5.57999959,31.9999989 1.99999988,28.4199991 1.99999988,23.9999994 C1.99999988,19.5799996 5.57999959,15.9999999 9.9999994,15.9999999 C14.4199991,15.9999999 17.9999989,19.5799996 17.9999989,23.9999994 C17.9999989,28.4199991 14.4199991,31.9999989 9.9999994,31.9999989 Z M10.4999994,18.9999997 L8.99999946,18.9999997 L8.99999946,24.9999993 L14.2499991,28.1499988 L14.9999991,26.9199992 L10.4999994,24.2499994 L10.4999994,18.9999997 Z"></path>
        </g>
    </g>
</svg>
