<svg id="icon_about" viewBox="0 0 51 35">
    <g transform="translate(-298.000000, -3188.000000)">
        <g transform="translate(298.000000, 3188.000000)">
            <g transform="translate(31.000000, 0.000000)">
                <g transform="translate(10.000000, 5.000000) rotate(90.000000) translate(-10.000000, -5.000000) translate(5.000000, -5.000000)">
                    <path d="M7.64975,16.0932 L9.43725,14.3057 C6.96975,11.8382 6.96975,7.8332 9.43725,5.3632 L7.64975,3.5757 C4.18975,7.0357 4.18975,12.6332 7.64975,16.0932 M4.07475,19.6707 L5.86225,17.8807 C1.41725,13.4382 1.41725,6.2307 5.86225,1.7882 L4.07475,0.0007 C-1.36275,5.4357 -1.35275,14.2432 4.07475,19.6707"></path>
                </g>
                <g transform="translate(0.000000, 15.000000)">
                    <path d="M6.99999958,9.74999942 C6.30999908,9.74999942 5.74999966,10.3099998 5.74999966,10.9999993 C5.74999966,11.6899988 6.31000003,12.2499993 6.99999958,12.2499993 C7.68999912,12.2499993 8.24999951,11.6899988 8.24999951,10.9999993 C8.24999951,10.3099998 7.68999912,9.74999942 6.99999958,9.74999942 Z M12.9999992,9.74999942 C12.3099987,9.74999942 11.7499993,10.3099998 11.7499993,10.9999993 C11.7499993,11.6899988 12.3099997,12.2499993 12.9999992,12.2499993 C13.6899987,12.2499993 14.2499991,11.6899988 14.2499991,10.9999993 C14.2499991,10.3099998 13.6899987,9.74999942 12.9999992,9.74999942 Z M9.9999994,0 C4.47999974,0 0,4.47999974 0,9.9999994 C0,15.5199995 4.47999974,19.9999988 9.9999994,19.9999988 C15.5199995,19.9999988 19.9999988,15.5199995 19.9999988,9.9999994 C19.9999988,4.47999927 15.5199995,0 9.9999994,0 Z M9.9999994,17.9999989 C5.58999981,17.9999989 1.99999988,14.4099989 1.99999988,9.9999994 C1.99999988,9.70999942 2.01999986,9.41999943 2.05000007,9.13999975 C4.41000006,8.08999961 6.2800003,6.15999947 7.25999978,3.77000022 C9.06999906,6.32999954 12.0499994,7.99999952 15.4199991,7.99999952 C16.1999997,7.99999952 16.9499997,7.90999937 17.6699989,7.73999931 C17.879998,8.44999929 17.9999989,9.20999945 17.9999989,9.9999994 C17.9999989,14.4099989 14.4099989,17.9999989 9.9999994,17.9999989 Z"></path>
                </g>
            </g>
            <polygon points="9.9999994 29.2699995 16.1799993 32.9999989 14.54 25.9699986 19.9999988 21.2399993 12.8099986 20.6299997 9.9999994 14 7.18999915 20.6299997 0 21.2399993 5.4599997 25.9699986 3.81999994 32.9999989"></polygon>
        </g>
    </g>
</svg>
