<svg id="icon_speakers" viewBox="0 0 44 37">
    <g transform="translate(-305.000000, -771.000000)">
        <g transform="translate(300.000000, 771.000000)">
            <g transform="translate(0.000000, 13.702703)">
                <path d="M16.999999,2.10810798 L6.99999958,2.10810798 C5.89999974,2.10810798 4.9999997,3.05675667 4.9999997,4.21621596 L4.9999997,21.0810798 C4.9999997,22.2405395 5.89999974,23.1786469 6.99999958,23.1786469 L16.999999,23.1891878 C18.0999992,23.1891878 18.9999989,22.2405395 18.9999989,21.0810798 L18.9999989,4.21621596 C18.9999989,3.05675667 18.0999992,2.10810798 16.999999,2.10810798 Z M11.9999993,4.21621596 C13.0999995,4.21621596 13.9999992,5.16486465 13.9999992,6.32432394 C13.9999992,7.48378323 13.0999995,8.43243193 11.9999993,8.43243193 C10.8899996,8.43243193 9.9999994,7.48378323 9.9999994,6.32432394 C9.9999994,5.16486465 10.8899996,4.21621596 11.9999993,4.21621596 Z M11.9999993,21.0810798 C9.23999922,21.0810798 6.99999958,18.7199991 6.99999958,15.8108099 C6.99999958,12.9016205 9.23999922,10.5405399 11.9999993,10.5405399 C14.7599993,10.5405399 16.999999,12.9016205 16.999999,15.8108099 C16.999999,18.7199991 14.7599993,21.0810798 11.9999993,21.0810798 Z M11.9999993,12.6486479 C10.3399995,12.6486479 8.99999946,14.0610803 8.99999946,15.8108099 C8.99999946,17.5605393 10.3399995,18.9729718 11.9999993,18.9729718 C13.659999,18.9729718 14.9999991,17.5605393 14.9999991,15.8108099 C14.9999991,14.0610803 13.659999,12.6486479 11.9999993,12.6486479 Z"></path>
            </g>
            <path d="M35.9999996,26.0878372 C35.3099991,26.0878372 34.7499997,26.6781079 34.7499997,27.4054047 C34.7499997,28.1327014 35.31,28.7229722 35.9999996,28.7229722 C36.6899991,28.7229722 37.2499995,28.1327014 37.2499995,27.4054047 C37.2499995,26.6781079 36.6899991,26.0878372 35.9999996,26.0878372 Z M41.9999992,26.0878372 C41.3099987,26.0878372 40.7499993,26.6781079 40.7499993,27.4054047 C40.7499993,28.1327014 41.3099997,28.7229722 41.9999992,28.7229722 C42.6899987,28.7229722 43.2499991,28.1327014 43.2499991,27.4054047 C43.2499991,26.6781079 42.6899987,26.0878372 41.9999992,26.0878372 Z M38.9999994,15.8108108 C33.4799997,15.8108108 29,20.5329727 29,26.3513507 C29,32.1697292 33.4799997,36.8918906 38.9999994,36.8918906 C44.5199995,36.8918906 48.9999988,32.1697292 48.9999988,26.3513507 C48.9999988,20.5329722 44.5199995,15.8108108 38.9999994,15.8108108 Z M38.9999994,34.7837826 C34.5899998,34.7837826 30.9999999,30.9997286 30.9999999,26.3513507 C30.9999999,26.0456751 31.0199999,25.7399994 31.0500001,25.4448646 C33.4100001,24.3381077 35.2800003,22.3037832 36.2599998,19.7845948 C38.0699991,22.4829725 41.0499994,24.2432427 44.4199991,24.2432427 C45.1999997,24.2432427 45.9499997,24.1483777 46.6699989,23.9691885 C46.879998,24.7175668 46.9999989,25.5186481 46.9999989,26.3513507 C46.9999989,30.9997286 43.4099989,34.7837826 38.9999994,34.7837826 Z"></path>
            <g transform="translate(39.000000, 5.270270) rotate(90.000000) translate(-39.000000, -5.270270) translate(34.000000, -5.270270)">
                <path d="M7.64975,16.9631027 L9.43725,15.0789811 C6.96975,12.4781027 6.96975,8.25661622 9.43725,5.6531027 L7.64975,3.76898108 C4.18975,7.41600811 4.18975,13.3160757 7.64975,16.9631027 M4.07475,20.7339811 L5.86225,18.8472243 C1.41725,14.1645892 1.41725,6.56749459 5.86225,1.88485946 L4.07475,0.000737837838 C-1.36275,5.72952162 -1.35275,15.0131027 4.07475,20.7339811"></path>
            </g>
        </g>
    </g>
</svg>
